<?xml version="1.0" encoding="iso-8859-1"?>
<!-- Generator: Adobe Illustrator 19.0.0, SVG Export Plug-In . SVG Version: 6.00 Build 0)  -->
<svg version="1.1" id="Capa_1" xmlns="http://www.w3.org/2000/svg" xmlns:xlink="http://www.w3.org/1999/xlink" fill="#1a1a1a" x="0px" y="0px"
	 viewBox="0 0 409.592 409.592" style="enable-background:new 0 0 409.592 409.592;" xml:space="preserve">
<g>
	<g>
		<path d="M399.643,180.659l-27.935-27.93c-6.63-6.63-12.063-19.732-12.063-29.128V84.101c0-18.79-15.35-34.14-34.135-34.15h-39.516
			c-9.385,0-22.502-5.443-29.133-12.068l-27.93-27.93c-13.271-13.271-35-13.271-48.271,0l-27.93,27.95
			c-6.636,6.63-19.768,12.058-29.133,12.058H84.097c-18.765,0-34.135,15.35-34.135,34.14v39.501c0,9.359-5.432,22.502-12.063,29.128
			l-27.935,27.93c-13.281,13.271-13.281,35,0,48.292l27.935,27.93c6.635,6.63,12.063,19.768,12.063,29.128v39.501
			c0,18.77,15.37,34.14,34.135,34.14h39.501c9.385,0,22.502,5.432,29.133,12.058l27.93,27.94c13.271,13.261,35,13.261,48.271,0
			l27.93-27.94c6.636-6.63,19.748-12.058,29.133-12.058h39.516c18.785,0,34.135-15.37,34.135-34.14v-39.501
			c0-9.4,5.437-22.502,12.063-29.128l27.935-27.93C412.904,215.66,412.904,193.93,399.643,180.659z M177.701,281.6l-75.31-75.32
			l24.136-24.131l51.18,51.18L283.061,128l24.13,24.131L177.701,281.6z"/>
	</g>
</g>
<g>
</g>
<g>
</g>
<g>
</g>
<g>
</g>
<g>
</g>
<g>
</g>
<g>
</g>
<g>
</g>
<g>
</g>
<g>
</g>
<g>
</g>
<g>
</g>
<g>
</g>
<g>
</g>
<g>
</g>
</svg>
