<svg id="Capa_1" enable-background="new 0 0 512 512" height="512" viewBox="0 0 512 512" width="512" xmlns="http://www.w3.org/2000/svg"><g><path d="m345.91 301.957c-.29.9-.32.99-.61 1.89l53.21 46.93c34.62 30.51 45.85 78.48 30.69 120.15l-48.12-24.97 8.89 53.48c-44.33 1.54-86.48-23.96-104.8-66.31l-28.19-65.12h-1.98l-28.18 65.12c-18.33 42.35-60.48 67.85-104.8 66.31l8.89-53.48-48.11 24.97c-15.16-41.67-3.93-89.64 30.67-120.15l53.22-46.93c-.29-.9-.32-.99-.61-1.89l-70.64-6.68c-45.93-4.33-83.21-36.55-95.44-79.17l53.61-8.07-38.63-38.05c34.96-27.3 84.04-31.43 123.76-7.95l61.06 36.11c.77-.56.84-.61 1.61-1.17l-15.47-69.23c-10.06-45.03 9.05-90.44 45.8-115.25l24.22 48.43.03.06 24.25-48.49c36.76 24.81 55.87 70.22 45.81 115.25l-15.47 69.23c.76.56.84.61 1.6 1.17l61.07-36.11c39.71-23.48 88.81-19.35 123.75 7.95l-38.62 38.05 53.62 8.07c-12.24 42.62-49.52 74.84-95.45 79.17z" fill="#ffd0e5"/><path d="m345.91 301.957c-.29.9-.32.99-.61 1.89l53.21 46.93c34.62 30.51 45.85 78.48 30.69 120.15l-48.12-24.97 8.89 53.48c-44.33 1.54-86.48-23.96-104.8-66.31l-28.19-65.12h-1.02v-307.08l.03.06 24.25-48.49c36.76 24.81 55.87 70.22 45.81 115.25l-15.47 69.23c.76.56.84.61 1.6 1.17l61.07-36.11c39.71-23.48 88.81-19.35 123.75 7.95l-38.62 38.05 53.62 8.07c-12.24 42.62-49.52 74.84-95.45 79.17z" fill="#f7abcd"/><path d="m280.22 281.647 54.32 74.89-24.29 17.61-54.29-74.86-.01-.01-54.43 74.79-24.25-17.65 54.41-74.77-87.98-28.55 9.27-28.54 88 28.56v-92.48h30v92.47l87.97-28.61 9.28 28.53z" fill="#fff4f4"/><path d="m280.22 281.647 54.32 74.89-24.29 17.61-54.29-74.86v-138.65h15.01v92.47l87.97-28.61 9.28 28.53z" fill="#eee6f2"/><path d="m290.02 273.777c0 18.81-15.25 34.06-34.05 34.06h-.01c-18.81-.01-34.05-15.25-34.05-34.06s15.24-34.04 34.05-34.05h.01c18.8 0 34.05 15.24 34.05 34.05z" fill="#f7abcd"/><path d="m290.02 273.777c0 18.81-15.25 34.06-34.05 34.06h-.01v-68.11h.01c18.8 0 34.05 15.24 34.05 34.05z" fill="#e47da8"/></g></svg>