<svg id="Capa_1" enable-background="new 0 0 512 512" height="512" viewBox="0 0 512 512" width="512" xmlns="http://www.w3.org/2000/svg"><g><path d="m-75.916 225.877h663.832v60.246h-663.832z" fill="#66518e" transform="matrix(.707 -.707 .707 .707 -106.039 256)"/><path d="m-65.266 251.589h663.832v30.123h-663.832z" fill="#443c67" transform="matrix(.707 -.707 .707 .707 -110.45 266.65)"/><circle cx="198.445" cy="313.555" fill="#ffd0e5" r="82.116"/><path d="m256.51 371.62c-32.07 32.07-84.06 32.07-116.13 0l116.13-116.13c32.07 32.07 32.07 84.06 0 116.13z" fill="#f7abcd"/><path d="m349.42 278.71c-32.07 32.07-84.07 32.07-116.13 0-32.07-32.06-32.07-84.06 0-116.13 32.06-32.07 84.06-32.07 116.13 0s32.07 84.07 0 116.13z" fill="#ffe127"/><path d="m349.42 278.71c-32.07 32.07-84.07 32.07-116.13 0l116.13-116.13c32.07 32.07 32.07 84.07 0 116.13z" fill="#ffbf2d"/><circle cx="384.255" cy="127.745" fill="#00dc7d" r="82.116"/><path d="m442.32 185.81c-32.07 32.07-84.06 32.07-116.13 0l116.13-116.13c32.07 32.07 32.07 84.06 0 116.13z" fill="#32afa8"/></g></svg>