<svg id="Capa_1" enable-background="new 0 0 512 512" height="512" viewBox="0 0 512 512" width="512" xmlns="http://www.w3.org/2000/svg"><g><path d="m354.82 304.64c-.31.93-.33 1.02-.64 1.94 10.81 9.53 63.49 55.98 63.49 55.98 18.26 16.1 27.25 38.23 27.25 60.3 0 24.62-11.19 49.16-33.17 65.13-41.67 30.27-100.66 14.13-121.11-33.14l-33.62-77.67h-2.04l-33.62 77.67c-13.38 30.92-43.26 48.53-73.99 48.53-16.24 0-32.72-4.92-47.13-15.39-41.67-30.28-44.55-91.37-5.91-125.43 0 0 52.68-46.45 63.48-55.98-.3-.92-.33-1.01-.63-1.94l-84.26-7.97c-42.56-4.02-72.92-39.91-72.92-80.01 0-8.22 1.27-16.61 3.98-24.94 15.92-48.98 73.13-70.6 117.46-44.38l72.86 43.08c.78-.58.86-.63 1.65-1.2l-18.46-82.61c-1.33-5.97-1.97-11.9-1.97-17.72 0-43.2 35.08-80.26 80.47-80.27h.01c51.51 0 89.74 47.73 78.51 97.99l-18.46 82.61c.79.57.86.62 1.65 1.19l72.86-43.07c12.96-7.66 27.02-11.24 40.83-11.24 33.42 0 65.36 20.96 76.63 55.62 15.91 48.99-17.66 100.11-68.94 104.95z" fill="#fe534e"/><path d="m354.82 304.64c-.31.93-.33 1.02-.64 1.94 10.81 9.53 63.49 55.98 63.49 55.98 18.26 16.1 27.25 38.23 27.25 60.3 0 24.62-11.19 49.16-33.17 65.13-41.67 30.27-100.66 14.13-121.11-33.14l-33.62-77.67h-1.03v-368.56h.01c51.51 0 89.74 47.73 78.51 97.99l-18.46 82.61c.79.57.86.62 1.65 1.19l72.86-43.07c12.96-7.66 27.02-11.24 40.83-11.24 33.42 0 65.36 20.96 76.63 55.62 15.91 48.99-17.66 100.11-68.94 104.95z" fill="#e50057"/><path d="m280.22 281.49 54.32 74.89-24.28 17.62-54.27-74.81-.04-.06-54.42 74.78-24.26-17.65 54.41-74.77-87.97-28.55 9.26-28.54 88 28.57v-92.49h30v92.48l87.97-28.62 9.28 28.53z" fill="#ffd0e5"/><path d="m280.22 281.49 54.32 74.89-24.28 17.62-54.27-74.81v-138.71h14.98v92.48l87.97-28.62 9.28 28.53z" fill="#f7abcd"/><ellipse cx="255.99" cy="273.61" fill="#e50057" rx="33.47" ry="33.47" transform="matrix(.924 -.383 .383 .924 -85.22 118.791)"/><path d="m289.46 273.61c0 18.49-14.98 33.47-33.47 33.47v-66.94c18.49 0 33.47 14.99 33.47 33.47z" fill="#c3046b"/></g></svg>