<svg id="Capa_1" enable-background="new 0 0 512 512" height="512" viewBox="0 0 512 512" width="512" xmlns="http://www.w3.org/2000/svg"><g><path d="m-75.916 225.877h663.832v60.246h-663.832z" fill="#66518e" transform="matrix(.707 -.707 .707 .707 -106.039 256)"/><path d="m-65.266 251.589h663.832v30.123h-663.832z" fill="#443c67" transform="matrix(.707 -.707 .707 .707 -110.45 266.65)"/><circle cx="355.585" cy="156.415" fill="#ffd0e5" r="65.697"/><circle cx="228.565" cy="283.435" fill="#ffd0e5" r="65.697"/><path d="m275.02 236.98c25.65 25.66 25.65 67.25 0 92.91-25.66 25.65-67.25 25.65-92.91 0z" fill="#f7abcd"/><path d="m402.04 202.87c-25.66 25.65-67.25 25.65-92.91 0l92.91-92.91c25.65 25.66 25.65 67.25 0 92.91z" fill="#f7abcd"/><g fill="#00dc7d"><path d="m386.25-5.637h65.69v197.085h-65.69z" transform="matrix(.707 -.707 .707 .707 57.057 323.557)"/><path d="m384.98 266.38-46.45 46.45-69.68-69.68-69.68-69.68 46.45-46.45z"/><path d="m257.96 393.4-46.46 46.45-139.35-139.35 46.45-46.46 69.68 69.68z"/></g><path d="m188.28 323.72 69.68 69.68-46.46 46.45-69.67-69.67z" fill="#32afa8"/><path d="m294.07 205.494h65.69v98.542h-65.69z" fill="#32afa8" transform="matrix(.707 -.707 .707 .707 -84.395 305.782)"/><path d="m421.09 78.474h65.69v98.542h-65.69z" fill="#32afa8" transform="matrix(.707 -.707 .707 .707 42.625 358.397)"/></g></svg>