<svg id="Capa_1" enable-background="new 0 0 512 512" height="512" viewBox="0 0 512 512" width="512" xmlns="http://www.w3.org/2000/svg"><g><g><path d="m260.491 437.43-8.982-28.624 171.424-53.789 15.985-58.783 28.949 7.873-20.294 74.62z" fill="#3d294f"/><path d="m245.284 436.495-180.871-57.819-20.28-74.569 28.949-7.873 15.999 58.833 165.338 52.852z" fill="#443c67"/><path d="m243.83 356.882-90.889-39.834-14.071-82.37 29.572-5.052 11.349 66.435 76.082 33.345z" fill="#443c67"/><path d="m263.525 394.316-15.05-25.951 83.021-48.149 15.431-102.524 29.666 4.465-17.577 116.779z" fill="#3d294f"/></g><path d="m306.77 512h-108.4l18.77-100.25 10.79-123.75 11.07-96 17-11.78 23.35 11.78-.92 64 2.71 32 11.09 123.75z" fill="#66518e"/><path d="m306.77 512h-50.77v-331.78l23.35 11.78-.92 64 2.71 32 11.09 123.75z" fill="#443c67"/><path d="m456.013 320h-16.027c-17.673 0-32-14.327-32-32v-37.899l40.014 5.899h8.013c17.673 0 32 14.327 32 32 0 17.673-14.327 32-32 32z" fill="#f7abcd"/><path d="m72.013 320h-16.026c-17.673 0-32-14.327-32-32 0-17.673 14.327-32 32-32h8.013l40.013-6.876v38.876c0 17.673-14.327 32-32 32z" fill="#ffd0e5"/><path d="m271.996 180.219 142.129 11.781c18.709 0 33.875 15.166 33.875 33.875v30.125h-169.573z" fill="#e47da8"/><path d="m161.875 256h-97.875v-32c0-17.673 14.327-32 32-32l96-8.197v42.072c0 16.638-13.487 30.125-30.125 30.125z" fill="#f7abcd"/><path d="m326.57 32v44.29h-141.14v-44.29c0-17.67 14.33-32 32-32h77.14c17.67 0 32 14.33 32 32z" fill="#ffd0e5"/><path d="m326.57 32v44.29h-70.57v-76.29h38.57c17.67 0 32 14.33 32 32z" fill="#f7abcd"/><path d="m368 97.87v40.97h-224v-40.97c0-18.7 15.17-33.87 33.87-33.87h156.26c18.7 0 33.87 15.17 33.87 33.87z" fill="#f7abcd"/><path d="m368 97.87v40.97h-112v-74.84h78.13c18.7 0 33.87 15.17 33.87 33.87z" fill="#e47da8"/><path d="m416 160v32h-320v-32c0-17.67 14.33-32 32-32h256c17.67 0 32 14.33 32 32z" fill="#ffd0e5"/><path d="m416 160v32h-160v-64h128c17.67 0 32 14.33 32 32z" fill="#f7abcd"/></g></svg>