<svg id="Capa_1" enable-background="new 0 0 512 512" height="512" viewBox="0 0 512 512" width="512" xmlns="http://www.w3.org/2000/svg"><g><path d="m384 241-11.14 16.77 11.14 13.23v34l-11.14 14.51 11.14 15.49v34l-11.14 15s10.53 10.19 9.37 15c-6.74 28.11-32.04 49-62.23 49l-64 15.01-.04.01-63.96-15.02c-30.19 0-55.49-20.89-62.23-49-1.16-4.81 14.49-15 14.49-15l-16.26-15v-34l16.26-15.11-16.26-14.89v-34l16.26-15-16.26-15v-34l16.26-15s-15.65-10.19-14.49-15c6.74-28.11 32.04-49 62.23-49l63.96-18.79.04.01 64 18.78c17.68 0 33.68 7.16 45.26 18.74 8.2 8.2 14.18 18.61 16.97 30.26 1.16 4.81-9.37 15-9.37 15l11.14 15z" fill="#ffe127"/><path d="m384 241-11.14 16.77 11.14 13.23v34l-11.14 14.51 11.14 15.49v34l-11.14 15s10.53 10.19 9.37 15c-6.74 28.11-32.04 49-62.23 49l-64 15.01v-353.79l64 18.78c17.68 0 33.68 7.16 45.26 18.74 8.2 8.2 14.18 18.61 16.97 30.26 1.16 4.81-9.37 15-9.37 15l11.14 15z" fill="#ffbf2d"/><path d="m384 207v-15c0-5.17-.61-10.19-1.77-15h-53.49c-.48-18.19-3.58-35.36-8.88-49-.21-.53-.42-1.06-.63-1.58-10.68-26.1-26.09-30-34.32-30 0 0-.8 29.85-.89 29.85.56.26 1.24.84 2 1.73 4.57 5.39 11.88 22.21 12.71 49h-85.46c.83-26.79 8.14-43.61 12.71-49 .76-.89 1.44-1.47 2-1.73-.09 0-.89-29.85-.89-29.85-8.23 0-23.64 3.9-34.32 30-.21.52-.42 1.05-.63 1.58-5.3 13.64-8.4 30.81-8.88 49h-53.49c-1.16 4.81-1.77 9.83-1.77 15v15h55.18v34h-55.18v30h55.18v34h-55.18v30h55.18v34h-55.18v15c0 5.17.61 10.19 1.77 15h53.49c.48 18.19 3.58 35.36 8.88 49 .21.53.42 1.06.63 1.58 10.68 26.1 26.09 30 34.32 30 0 0 .8-29.85.89-29.85-.56-.26-1.24-.84-2-1.73-4.57-5.39-11.88-22.21-12.71-49h85.46c-.83 26.79-8.14 43.61-12.71 49-.76.89-1.44 1.47-2 1.73.09 0 .89 29.85.89 29.85 8.23 0 23.64-3.9 34.32-30 .21-.52.42-1.05.63-1.58 5.3-13.64 8.4-30.81 8.88-49h53.49c1.16-4.81 1.77-9.83 1.77-15v-15h-55.18v-34h55.18v-30h-55.18v-34h55.18v-30h-55.18v-34zm-85.18 162h-85.64v-34h85.64zm0-64h-85.64v-34h85.64zm0-64h-85.64v-34h85.64z" fill="#ffbf2d"/><path d="m328.82 207v34h55.18v30h-55.18v34h55.18v30h-55.18v34h55.18v15c0 5.17-.61 10.19-1.77 15h-53.49c-.48 18.19-3.58 35.36-8.88 49-.21.53-.42 1.06-.63 1.58-10.68 26.1-26.09 30-34.32 30 0 0-.8-29.85-.89-29.85.56-.26 1.24-.84 2-1.73 4.57-5.39 11.88-22.21 12.71-49h-42.73v-30h42.82v-34h-42.82v-30h42.82v-34h-42.82v-30h42.82v-34h-42.82v-30h42.73c-.83-26.79-8.14-43.61-12.71-49-.76-.89-1.44-1.47-2-1.73.09 0 .89-29.85.89-29.85 8.23 0 23.64 3.9 34.32 30 .21.52.42 1.05.63 1.58 5.3 13.64 8.4 30.81 8.88 49h53.49c1.16 4.81 1.77 9.83 1.77 15v15z" fill="#ffa032"/><path d="m301.12 45.12v30.13h-30v-30.13c0-8.33-6.78-15.12-15.12-15.12s-15.12 6.79-15.12 15.12v30.13h-30v-30.13c0-24.88 20.24-45.12 45.12-45.12s45.12 20.24 45.12 45.12z" fill="#443c67"/><path d="m301.12 45.12v30.13h-30v-30.13c0-8.33-6.78-15.12-15.12-15.12v-30c24.88 0 45.12 20.24 45.12 45.12z" fill="#3d294f"/><path d="m192 64h128v64h-128z" fill="#fe534e"/><path d="m192 448h128v64h-128z" fill="#fe534e"/><g fill="#e50057"><path d="m256 64h64v64h-64z"/><path d="m256 448h64v64h-64z"/></g></g></svg>