<svg id="Capa_1" enable-background="new 0 0 512 512" height="512" viewBox="0 0 512 512" width="512" xmlns="http://www.w3.org/2000/svg"><g><path d="m428.31 288c0 5.74-.28 11.41-.83 17-.51 5.15-18.46 15.23-18.46 15.23s14.17 9.93 12.79 14.77c-3.36 11.91-7.97 23.29-13.69 34-2.86 5.36-25.67 15.57-25.67 15.57s9.23 9.82 5.34 14.43c-18.08 21.44-41.28 38.4-67.73 49l-64.06 15.023-64.06-15.023c-26.45-10.6-49.65-27.56-67.73-49-3.89-4.61 3.14-14.43 3.14-14.43s-20.6-10.2-23.47-15.57c-5.72-10.71-10.33-22.09-13.69-34-1.37-4.84 10.59-14.77 10.59-14.77s-15.75-10.08-16.26-15.23c-.55-5.59-.83-11.26-.83-17s.28-11.41.83-17c.54-5.53 16.47-16.35 16.47-16.35s-12.07-9.17-10.8-13.65c3.36-11.91 7.97-23.29 13.69-34 3.2-5.99 24.67-17.31 24.67-17.31s-7.78-8.62-4.34-12.69c18.08-21.44 41.28-38.4 67.73-49l64.06-11.654 64.06 11.654c26.45 10.6 49.65 27.56 67.73 49 3.89 4.61-5.34 14.43-5.34 14.43s22.8 10.2 25.67 15.57c5.72 10.71 10.33 22.09 13.69 34 1.38 4.84-12.79 14.77-12.79 14.77s17.95 10.08 18.46 15.23c.55 5.59.83 11.26.83 17z" fill="#fe534e"/><path d="m428.31 288c0 5.74-.28 11.41-.83 17-.51 5.15-18.46 15.23-18.46 15.23s14.17 9.93 12.79 14.77c-3.36 11.91-7.97 23.29-13.69 34-2.86 5.36-25.67 15.57-25.67 15.57s9.23 9.82 5.34 14.43c-18.08 21.44-41.28 38.4-67.73 49l-64.06 15.023v-346.677l64.06 11.654c26.45 10.6 49.65 27.56 67.73 49 3.89 4.61-5.34 14.43-5.34 14.43s22.8 10.2 25.67 15.57c5.72 10.71 10.33 22.09 13.69 34 1.38 4.84-12.79 14.77-12.79 14.77s17.95 10.08 18.46 15.23c.55 5.59.83 11.26.83 17z" fill="#e50057"/><path d="m301.12 45.12v30.13h-30v-30.13c0-8.33-6.78-15.12-15.12-15.12s-15.12 6.79-15.12 15.12v30.13h-30v-30.13c0-24.88 20.24-45.12 45.12-45.12s45.12 20.24 45.12 45.12z" fill="#443c67"/><path d="m301.12 45.12v30.13h-30v-30.13c0-8.33-6.78-15.12-15.12-15.12v-30c24.88 0 45.12 20.24 45.12 45.12z" fill="#3d294f"/><path d="m339.52 288c0-5.7-.11-11.37-.29-17h88.25c-1.01-10.3-2.92-20.32-5.67-30h-84.48c-1.1-11.68-2.61-23.05-4.52-34h75.31c-5.73-10.73-12.55-20.78-20.33-30h-61.51c-5.06-19.1-11.39-35.63-18.71-49-4.66-8.5-9.71-15.74-15.09-21.55l-22.01 20.39c.35.37.69.76 1.04 1.16 8.46 9.71 16.89 26.41 23.65 49h-78.32c6.76-22.59 15.19-39.29 23.65-49 .35-.4.69-.79 1.04-1.16l-22.01-20.39c-5.38 5.81-10.43 13.05-15.09 21.55-7.32 13.38-13.65 29.9-18.71 49h-61.51c-7.78 9.22-14.6 19.27-20.33 30h75.31c-1.91 10.95-3.42 22.32-4.52 34h-84.48c-2.75 9.68-4.66 19.7-5.67 30h88.25c-.18 5.63-.29 11.3-.29 17s.11 11.37.29 17h-88.25c1.01 10.3 2.92 20.32 5.67 30h84.48c1.1 11.68 2.61 23.05 4.52 34h-75.31c5.73 10.73 12.55 20.78 20.33 30h61.51c5.06 19.1 11.39 35.62 18.71 49 4.66 8.5 9.71 15.74 15.09 21.55l22.01-20.39c-.35-.37-.69-.76-1.04-1.16-8.46-9.71-16.89-26.41-23.65-49h78.32c-6.76 22.59-15.19 39.29-23.65 49-.35.4-.69.79-1.04 1.16l22.01 20.39c5.38-5.81 10.43-13.05 15.09-21.55 7.32-13.37 13.65-29.9 18.71-49h61.51c7.78-9.22 14.6-19.27 20.33-30h-75.31c1.91-10.95 3.42-22.32 4.52-34h84.48c2.75-9.68 4.66-19.7 5.67-30h-88.25c.18-5.63.29-11.3.29-17zm-129.92-81h92.8c1.99 10.53 3.64 21.89 4.84 34h-102.48c1.2-12.11 2.85-23.47 4.84-34zm92.8 162h-92.8c-1.99-10.53-3.64-21.89-4.84-34h102.48c-1.2 12.11-2.85 23.47-4.84 34zm6.82-64h-106.44c-.19-5.55-.3-11.21-.3-17s.11-11.45.3-17h106.44c.19 5.55.3 11.21.3 17s-.11 11.45-.3 17z" fill="#e50057"/><path d="m339.23 305h88.25c-1.01 10.3-2.92 20.32-5.67 30h-84.48c-1.1 11.68-2.61 23.05-4.52 34h75.31c-5.73 10.73-12.55 20.78-20.33 30h-61.51c-5.06 19.1-11.39 35.63-18.71 49-4.66 8.5-9.71 15.74-15.09 21.55l-22.01-20.39c.35-.37.69-.76 1.04-1.16 8.46-9.71 16.89-26.41 23.65-49h-39.16v-30h46.4c1.99-10.53 3.64-21.89 4.84-34h-51.24v-30h53.22c.19-5.55.3-11.21.3-17s-.11-11.45-.3-17h-53.22v-30h51.24c-1.2-12.11-2.85-23.47-4.84-34h-46.4v-30h39.16c-6.76-22.59-15.19-39.29-23.65-49-.35-.4-.69-.79-1.04-1.16l22.01-20.39c5.38 5.81 10.43 13.05 15.09 21.55 7.32 13.37 13.65 29.9 18.71 49h61.51c7.78 9.22 14.6 19.27 20.33 30h-75.31c1.91 10.95 3.42 22.32 4.52 34h84.48c2.75 9.68 4.66 19.7 5.67 30h-88.25c.18 5.63.29 11.3.29 17s-.11 11.37-.29 17z" fill="#c3046b"/><path d="m192 64h128v64h-128z" fill="#ffe127"/><path d="m256 64h64v64h-64z" fill="#ffbf2d"/><path d="m192 448h128v64h-128z" fill="#ffe127"/><path d="m256 448h64v64h-64z" fill="#ffbf2d"/></g></svg>