<svg id="Capa_1" enable-background="new 0 0 512 512" height="512" viewBox="0 0 512 512" width="512" xmlns="http://www.w3.org/2000/svg"><g><path d="m389.95 268.87 7.23 68.06-68.06-7.23-42.99 53.23-43-53.23-68.06 7.23 7.23-68.06-53.23-42.99 53.23-43-7.23-68.06 68.06 7.23 42.99-53.23 43 53.23 68.06-7.23-7.23 68.06 53.23 43z" fill="#ffe127"/><path d="m389.95 268.87 7.23 68.06-68.06-7.23-42.99 53.23-43-53.23-68.06 7.23 222.11-222.11-7.23 68.06 53.23 43z" fill="#ffbf2d"/><path d="m130.88 402.34-109.67 109.66-10.6-10.6-10.61-10.61 109.66-109.67 10.61 10.61z" fill="#fe534e"/><path d="m130.88 402.34-109.67 109.66-10.6-10.6 109.66-109.67z" fill="#e50057"/><path d="m280.37 275.94-145.93 145.94c-6.12 6.12-14.14 9.17-22.16 9.17s-16.04-3.05-22.15-9.17v-.01c-12.24-12.24-12.24-32.07 0-44.31l145.93-145.93 30 14.31z" fill="#66518e"/><path d="m280.37 275.94-145.93 145.94c-6.12 6.12-14.14 9.17-22.16 9.17s-16.04-3.05-22.15-9.17v-.01l175.93-175.93z" fill="#443c67"/><path d="m311.71 244.6-31.34 31.34-44.31-44.31 31.34-31.34c12.24-12.24 32.08-12.24 44.31 0 12.24 12.24 12.24 32.08 0 44.31z" fill="#fe534e"/><path d="m311.71 244.6-31.34 31.34-22.15-22.15 53.49-53.5c12.24 12.24 12.24 32.08 0 44.31z" fill="#e50057"/><path d="m271.125 0h30v44.382h-30z" fill="#ffbf2d"/><path d="m271.125 407.368h30v44.382h-30z" fill="#ffa032"/><path d="m467.618 210.875h44.382v30h-44.382z" fill="#ffa032"/><path d="m60.25 210.875h44.382v30h-44.382z" fill="#ffbf2d"/><path d="m127.099 59.658h30v44.382h-30z" fill="#ffbf2d" transform="matrix(.707 -.707 .707 .707 -16.256 124.452)"/><path d="m415.152 347.71h30v44.382h-30z" fill="#ffa032" transform="matrix(.707 -.707 .707 .707 -135.571 412.505)"/><path d="m456.45 76.76-31.38 31.39-10.61-10.61-10.61-10.61 31.39-31.38z" fill="#ffbf2d"/><path d="m456.45 76.76-31.38 31.39-10.61-10.61 31.39-31.38z" fill="#ffa032"/></g></svg>