<svg id="Capa_1" enable-background="new 0 0 512 512" height="512" viewBox="0 0 512 512" width="512" xmlns="http://www.w3.org/2000/svg"><g><path d="m427.25 165.63-59.75 282.37h-15.5l-96 16.36-96.36-16.36h-15.14l-59.75-282.37z" fill="#fe534e"/><path d="m427.25 165.63-59.75 282.37h-15.5l-96 16.36v-298.73z" fill="#e50057"/><path d="m427.25 165.63h-342.5l139.25-101.63h64z" fill="#66518e"/><path d="m427.25 165.63h-171.25v-101.63h32z" fill="#443c67"/><path d="m204.949 464.356 29.927-2.095-20.589-294.212.984-2.423h-31.227z" fill="#e50057"/><path d="m296.729 165.626.984 2.423-20.589 294.212 29.927 2.095 20.832-297.682.073-1.048z" fill="#c3046b"/><path d="m328.12 163.2-.16 2.43h-31.23l-40.73-100.28-40.73 100.28h-31.23l-.16-2.43 40.12-99.2 32-8.54 32 8.54z" fill="#443c67"/><path d="m328.12 163.2-.16 2.43h-31.23l-40.73-100.28v-9.89l32 8.54z" fill="#3d294f"/><path d="m160 448h192v64h-192z" fill="#443c67"/><path d="m256 448h96v64h-96z" fill="#3d294f"/><path d="m288 32v32h-64v-32c0-17.67 14.33-32 32-32 8.84 0 16.84 3.58 22.63 9.37s9.37 13.79 9.37 22.63z" fill="#443c67"/><path d="m65.12 150.63h381.76v30h-381.76z" fill="#443c67"/><g fill="#3d294f"><path d="m288 64h-32v-64c8.84 0 16.84 3.58 22.63 9.37s9.37 13.79 9.37 22.63z"/><path d="m256 150.63h190.88v30h-190.88z"/></g></g></svg>