<svg id="Capa_1" enable-background="new 0 0 512 512" height="512" viewBox="0 0 512 512" width="512" xmlns="http://www.w3.org/2000/svg"><g><path d="m512 129.129v319.44l-31.94 31.94h-177l-31.94-31.94v-319.44l31.94-31.94h177z" fill="#ffd0e5"/><path d="m512 129.129v319.44l-31.94 31.94h-88.5v-383.32h88.5z" fill="#f7abcd"/><path d="m512 366.509v10.85h-30v-10.85c0-28.56-9.09-55.71-26.29-78.51-16.33-21.65-38.44-37.35-64.15-45.6-25.7 8.25-47.81 23.95-64.14 45.6-17.2 22.8-26.3 49.95-26.3 78.51v10.85h-30v-10.85c0-35.13 11.19-68.53 32.34-96.57 18.85-24.99 43.96-43.53 73.1-54.1v-64.82h30v64.82c29.14 10.57 54.25 29.11 73.1 54.1 21.16 28.04 32.34 61.44 32.34 96.57z" fill="#fe534e"/><path d="m512 366.509v10.85h-30v-10.85c0-28.56-9.09-55.71-26.29-78.51-16.33-21.65-38.44-37.35-64.15-45.6v-91.38h15v64.82c29.14 10.57 54.25 29.11 73.1 54.1 21.16 28.04 32.34 61.44 32.34 96.57z" fill="#e50057"/><path d="m423.51 226.729c0 17.64-14.31 31.94-31.95 31.94s-31.94-14.3-31.94-31.94 14.3-31.94 31.94-31.94 31.95 14.3 31.95 31.94z" fill="#443c67"/><path d="m423.51 226.729c0 17.64-14.31 31.94-31.95 31.94v-63.88c17.64 0 31.95 14.3 31.95 31.94z" fill="#3d294f"/><path d="m240.88 63.431v319.44l-31.94 31.94h-177l-31.94-31.94v-319.44l31.94-31.94h177z" fill="#ffd0e5"/><path d="m240.88 63.431v319.44l-31.94 31.94h-88.5v-383.32h88.5z" fill="#f7abcd"/><path d="m240.88 300.811v10.85h-30v-10.85c0-28.56-9.09-55.71-26.29-78.51-16.33-21.65-38.44-37.35-64.15-45.6-25.7 8.25-47.81 23.95-64.14 45.6-17.2 22.8-26.3 49.95-26.3 78.51v10.85h-30v-10.85c0-35.13 11.19-68.53 32.34-96.57 18.85-24.99 43.96-43.53 73.1-54.1v-64.82h30v64.82c29.14 10.57 54.25 29.11 73.1 54.1 21.16 28.04 32.34 61.44 32.34 96.57z" fill="#fe534e"/><path d="m240.88 300.811v10.85h-30v-10.85c0-28.56-9.09-55.71-26.29-78.51-16.33-21.65-38.44-37.35-64.15-45.6v-91.38h15v64.82c29.14 10.57 54.25 29.11 73.1 54.1 21.16 28.04 32.34 61.44 32.34 96.57z" fill="#e50057"/><path d="m152.39 161.031c0 17.64-14.31 31.94-31.95 31.94s-31.94-14.3-31.94-31.94 14.3-31.94 31.94-31.94 31.95 14.3 31.95 31.94z" fill="#443c67"/><path d="m152.39 161.031c0 17.64-14.31 31.94-31.95 31.94v-63.88c17.64 0 31.95 14.3 31.95 31.94z" fill="#3d294f"/></g></svg>