<svg id="Capa_1" enable-background="new 0 0 512 512" height="512" viewBox="0 0 512 512" width="512" xmlns="http://www.w3.org/2000/svg"><g><path d="m241 204.6h30v230.42h-30z" fill="#443c67"/><path d="m256 204.6h15v230.42h-15z" fill="#3d294f"/><path d="m495.88 225.58h-479.76l239.88-171.63z" fill="#fe534e"/><path d="m495.88 225.58h-239.88v-171.63z" fill="#e50057"/><path d="m494.48 240.97-197.95-139.99 69.11 136.99-26.79 13.51-82.85-164.23-82.85 164.23-26.79-13.51 69.11-136.99-197.95 139.99-17.33-24.5 255.81-180.89 255.81 180.89z" fill="#443c67"/><path d="m494.48 240.97-197.95-139.99 69.11 136.99-26.79 13.51-82.85-164.23v-51.67l255.81 180.89z" fill="#3d294f"/><path d="m224 0h64v58.21h-64z" fill="#fe534e"/><path d="m256 0h32v58.21h-32z" fill="#e50057"/><path d="m224 416h64v96h-64z" fill="#fe534e"/><path d="m256 416h32v96h-32z" fill="#e50057"/></g></svg>