<svg id="Capa_1" enable-background="new 0 0 512 512" height="512" viewBox="0 0 512 512" width="512" xmlns="http://www.w3.org/2000/svg"><g><path d="m174.526 415.551h30v96.448h-30z" fill="#443c67"/><path d="m337.4 271.06-120.07 120.08-10.67-10.68-10.54-10.54 120.07-120.07 10.54 10.54z" fill="#66518e"/><path d="m187.126 318.216h169.808v15.093h-169.808z" fill="#443c67" transform="matrix(.707 -.707 .707 .707 -150.675 287.786)"/><path d="m139.097 326.976h30v44.51h-30z" fill="#66518e" transform="matrix(.707 -.707 .707 .707 -201.807 211.245)"/><path d="m112.218 388.727h47.179v30h-47.179z" fill="#66518e"/><path d="m193.53 96.77c0 53.44-43.32 96.76-96.76 96.76-53.45 0-96.77-43.32-96.77-96.76 0-53.45 43.32-96.77 96.77-96.77 53.44 0 96.76 43.32 96.76 96.77z" fill="#fe534e"/><path d="m193.53 96.77c0 53.44-43.32 96.76-96.76 96.76v-193.53c53.44 0 96.76 43.32 96.76 96.77z" fill="#e50057"/><path d="m117.98 96.77 24.98 24.98-21.21 21.21-24.98-24.98-24.98 24.98-21.22-21.21 24.98-24.98-24.98-24.98 21.22-21.22 24.98 24.98 24.98-24.98 21.21 21.22z" fill="#fff4f4"/><path d="m117.98 96.77 24.98 24.98-21.21 21.21-24.98-24.98v-42.43l24.98-24.98 21.21 21.22z" fill="#eee6f2"/><path d="m382.812 286.373c-.537.283-.587.304-1.132.58l2.864 45.7c1.867 29.727-14.892 56.738-40.828 68.844l-10.564-33.361-20.35 28.468c-20.93-19.53-28.525-50.403-17.565-78.093l16.85-42.575-.905-.905-42.575 16.85c-27.69 10.96-58.563 3.366-78.093-17.565l28.468-20.35-33.354-10.557c12.099-25.944 39.11-42.702 68.837-40.835l45.7 2.864c.276-.544.304-.587.58-1.131l-29.189-35.285c-18.972-22.946-21.298-54.659-7.418-79.698l28.15 20.782-.269-34.988c28.412 3.493 52.701 24.006 60.111 52.856l11.391 44.343c.601.092.658.106 1.259.198l24.537-38.65c15.959-25.152 45.403-37.144 73.504-31.7l-11.066 33.199 33.199-11.066c5.445 28.1-6.548 57.544-31.7 73.504l-38.65 24.537c.092.601.106.658.198 1.259l44.35 11.398c28.843 7.404 49.363 31.7 52.849 60.104l-34.981-.262 20.782 28.15c-25.046 13.873-56.752 11.554-79.705-7.425z" fill="#ffd0e5"/><path d="m382.812 286.373c-.537.283-.587.304-1.132.58l2.864 45.7c1.867 29.727-14.892 56.738-40.828 68.844l-10.564-33.361-20.35 28.468c-20.93-19.53-28.525-50.403-17.565-78.093l16.85-42.575-.452-.452 140.12-140.12 33.199-11.066c5.445 28.1-6.548 57.544-31.7 73.504l-38.65 24.537c.092.601.106.658.198 1.259l44.35 11.398c28.843 7.404 49.363 31.7 52.849 60.104l-34.981-.262 20.782 28.15c-25.046 13.873-56.752 11.554-79.705-7.425z" fill="#f7abcd"/><path d="m339.64 217.477h30v30h-30z" fill="#f7abcd" transform="matrix(.707 -.707 .707 .707 -60.514 318.86)"/><path d="m344.944 230.28h30v15h-30z" fill="#e47da8" transform="matrix(.707 -.707 .707 .707 -62.711 324.163)"/></g></svg>