<svg id="Capa_1" enable-background="new 0 0 512 512" height="512" viewBox="0 0 512 512" width="512" xmlns="http://www.w3.org/2000/svg"><g><path d="m316.247 150.5-7.74-15 7.74-15c-8.34 0-15.13-6.78-15.13-15.12v-105.38h-90.24v105.38c0 8.34-6.79 15.12-15.13 15.12l8.51 15-8.51 15c4.04 0 7.84 1.58 10.69 4.42 2.86 2.86 4.44 6.66 4.44 10.7v180.76c0 8.34-6.79 15.12-15.13 15.12l7.21 15-7.21 15c4.04 0 7.84 1.58 10.69 4.42 2.86 2.86 4.44 6.67 4.44 10.71v105.37h90.24v-105.37c0-8.34 6.79-15.13 15.13-15.13l-8.17-15 8.17-15c-8.34 0-15.13-6.78-15.13-15.12v-180.76c0-8.34 6.79-15.12 15.13-15.12z" fill="#00dc7d"/><path d="m301.117 165.62v180.76c0 8.34 6.79 15.12 15.13 15.12l-8.17 15 8.17 15c-8.34 0-15.13 6.79-15.13 15.13v105.37h-45.12v-512h45.12v105.38c0 8.34 6.79 15.12 15.13 15.12l-7.74 15 7.74 15c-8.34 0-15.13 6.78-15.13 15.12z" fill="#32afa8"/><path d="m195.747 361.5h120.5v30h-120.5z" fill="#bde953"/><path d="m316.247 120.5v30h-154.07c-41.5 0-75.25-33.76-75.25-75.25v-15h48.57c36.36 0 66.77 25.92 73.74 60.25z" fill="#bde953"/><g fill="#00dc7d"><path d="m255.997 120.5h60.25v30h-60.25z"/><path d="m255.997 361.5h60.25v30h-60.25z"/><path d="m150.492 286.13v-104.9h-90.24v104.9c0 8.34-6.79 15.12-15.13 15.12l7.21 15-7.21 15c4.04 0 7.84 1.58 10.69 4.42 2.86 2.86 4.44 6.67 4.44 10.71v165.62h90.24v-165.62c0-8.34 6.79-15.13 15.13-15.13l-8.17-15 8.17-15c-8.34 0-15.13-6.78-15.13-15.12z"/></g><path d="m150.492 286.13v-104.9h-45.12v330.77h45.12v-165.62c0-8.34 6.79-15.13 15.13-15.13l-8.17-15 8.17-15c-8.34 0-15.13-6.78-15.13-15.12z" fill="#32afa8"/><path d="m45.122 301.25h120.5v30h-120.5z" fill="#bde953"/><path d="m105.372 301.25h60.25v30h-60.25z" fill="#00dc7d"/><path d="m451.747 406.6c0 8.34 6.78 15.12 15.13 15.12l-8.17 15 8.17 15c-8.35 0-15.13 6.79-15.13 15.13v45.15h-90.24v-45.15c0-4.04-1.58-7.85-4.45-10.71-2.84-2.84-6.64-4.42-10.68-4.42l7.2-15-7.2-15c8.34 0 15.13-6.78 15.13-15.12v-180.7c0-4.04-1.58-7.85-4.45-10.71-2.84-2.84-6.64-4.42-10.68-4.42l7.2-15-7.2-15c8.34 0 15.13-6.78 15.13-15.12v-104.9h90.24v104.9c0 8.34 6.78 15.12 15.13 15.12l-8.17 15 8.17 15c-8.35 0-15.13 6.79-15.13 15.13z" fill="#00dc7d"/><path d="m451.747 406.6c0 8.34 6.78 15.12 15.13 15.12l-8.17 15 8.17 15c-8.35 0-15.13 6.79-15.13 15.13v45.15h-45.12v-451.25h45.12v104.9c0 8.34 6.78 15.12 15.13 15.12l-8.17 15 8.17 15c-8.35 0-15.13 6.79-15.13 15.13z" fill="#32afa8"/><path d="m346.373 180.769h120.5v30h-120.5z" fill="#bde953"/><path d="m406.623 180.769h60.25v30h-60.25z" fill="#00dc7d"/><path d="m346.373 421.719h120.5v30h-120.5z" fill="#bde953"/><path d="m406.623 421.719h60.25v30h-60.25z" fill="#00dc7d"/></g></svg>