<svg id="Capa_1" enable-background="new 0 0 512 512" height="512" viewBox="0 0 512 512" width="512" xmlns="http://www.w3.org/2000/svg"><g><path d="m178.028 249.84-16.248-25.22 72.685-46.827 12.935-85.943 29.666 4.464-14.953 99.354z" fill="#3d294f"/><path d="m134.828 297.665-74.454-39.303-20.905-82.324 29.076-7.384 17.624 69.401 62.665 33.08z" fill="#443c67"/><path d="m169.324 293.827h83.867v30h-83.867z" fill="#3d294f" transform="matrix(.841 -.541 .541 .841 -133.55 163.529)"/><path d="m224 448-65.44 18.15-.55.15-62.01-18.3 25.14-128 10.79-128-.71-64 27.34-22.62 19.32 22.62 7.26 64 11.09 128z" fill="#66518e"/><path d="m224 448-65.44 18.15v-360.77l19.32 22.62 7.26 64 11.09 128z" fill="#443c67"/><path d="m249.78 33.87v48.32h-176v-48.32c0-18.7 15.17-33.87 33.88-33.87h108.25c18.7 0 33.87 15.17 33.87 33.87z" fill="#ffd0e5"/><path d="m249.78 33.87v48.32h-91.22v-82.19h57.35c18.7 0 33.87 15.17 33.87 33.87z" fill="#f7abcd"/><path d="m279.492 387.75h30v78.548h-30z" fill="#443c67"/><path d="m443.508 387.75h30v78.548h-30z" fill="#3d294f"/><path d="m301.25 317.411h30v70.339h-30z" fill="#443c67"/><path d="m421.75 317.411h30v70.339h-30z" fill="#3d294f"/><path d="m266.05 372.75h220.9v30h-220.9z" fill="#fe534e"/><path d="m0 448h512v64h-512z" fill="#00dc7d"/><path d="m256 448h256v64h-256z" fill="#32afa8"/><path d="m32 128c-17.673 0-32 14.327-32 32 0 17.673 14.327 32 32 32h99.926l8.726-64-53.552-10.407z" fill="#ffd0e5"/><path d="m320 96c.082 17.06-14.017 31.847-32 32h-256v-32c0-17.67 14.33-32 32-32h224c17.67 0 32 14.33 32 32z" fill="#f7abcd"/><path d="m320 96c.082 17.06-14.017 31.847-32 32h-129.44v-64h129.44c17.67 0 32 14.33 32 32z" fill="#e47da8"/><path d="m289.39 267.25h174.22v64h-174.22z" fill="#fe534e"/><g fill="#e50057"><path d="m376.5 267.25h87.11v64h-87.11z"/><path d="m376.5 372.75h110.45v30h-110.45z"/></g></g></svg>