<svg id="Capa_1" enable-background="new 0 0 512 512" height="512" viewBox="0 0 512 512" width="512" xmlns="http://www.w3.org/2000/svg"><g><path d="m195.094 111.268h-195.094l159.411 172.364h35.683z" fill="#fe534e"/><path d="m279.728 111.268-169.269-111.268 71.578 251.219 13.057 32.413z" fill="#f7abcd"/><path d="m435.896 44.48-12.454 33.492v100.085h88.558z" fill="#e50057"/><path d="m404.76 378.42-280.22 66.79-12.18-53.72 12.18-57.91 155.19-222.31 43.79 53.74z" fill="#ffd0e5"/><path d="m404.76 378.42-280.22 66.79-12.18-53.72 211.16-226.48z" fill="#f7abcd"/><path d="m435.9 44.48-31.14 333.94-125.03-267.15 31.62-66.79z" fill="#f7abcd"/><path d="m435.9 44.48-31.14 333.94-93.65-200.1z" fill="#e47da8"/><path d="m124.54 333.58v178.42h-124.54z" fill="#fe534e"/><path d="m124.54 378.43v133.57h-124.54z" fill="#e50057"/></g></svg>