<svg id="Capa_1" enable-background="new 0 0 512 512" height="512" viewBox="0 0 512 512" width="512" xmlns="http://www.w3.org/2000/svg"><g><path d="m511.96 288c0 106.02-114.59 191.97-255.96 191.97s-255.96-85.95-255.96-191.97c0-106.03 114.59-288 255.96-288s255.96 181.97 255.96 288z" fill="#fff4f4"/><path d="m511.96 288c0 106.02-114.59 191.97-255.96 191.97v-479.97c141.37 0 255.96 181.97 255.96 288z" fill="#eee6f2"/><path d="m459.14 356.64c0 86.14-58.84 154.19-142.73 155.22-17.06.21-33.87-4.7-45.41-9.09-9.16-3.48-15-22.8-15-22.8s-5.87 19.28-15 22.74c-11.45 4.34-28.04 9.25-44.63 9.29-84.27.2-143.51-68.95-143.51-155.36 0-66.34 50.79-123.5 101.57-164.08 33.89-27.08 67.77-61.01 86.57-80.6l15 .04 15 .03c18.66 19.51 52.19 53.17 85.83 79.94 51.03 40.62 102.31 98.01 102.31 164.67z" fill="#00dc7d"/><path d="m459.14 356.64c0 86.14-58.84 154.19-142.73 155.22-17.06.21-33.87-4.7-45.41-9.09-9.16-3.48-15-22.8-15-22.8v-367.97l15 .03c18.66 19.51 52.19 53.17 85.83 79.94 51.03 40.62 102.31 98.01 102.31 164.67z" fill="#32afa8"/><path d="m391.44 317.58c-5.87 64.07-42.67 94.53-72.51 108.81-18.23 8.72-35.95 12.45-47.93 14.06v62.32c-9.16-3.48-15-6.63-15-6.63s-5.87 3.11-15 6.57v-62.26c-11.98-1.61-29.7-5.34-47.93-14.06-29.84-14.28-66.64-44.74-72.51-108.81l29.88-2.73c3.64 39.8 22.04 68.07 54.68 84.04 13.19 6.45 26.27 9.64 35.88 11.22v-71.08c-7.71-1.67-17.52-4.83-27.44-10.84-19.11-11.58-41.89-35.96-41.89-86.35h30c0 28.72 8.91 48.94 26.49 60.11 4.37 2.78 8.82 4.69 12.84 6.01v-196c9.37-9.77 15-15.97 15-15.97s5.62 6.23 15 16.04v195.93c4.02-1.32 8.47-3.23 12.84-6.01 17.58-11.17 26.49-31.39 26.49-60.11h30c0 50.39-22.78 74.77-41.89 86.35-9.92 6.01-19.73 9.17-27.44 10.84v71.08c9.61-1.58 22.69-4.77 35.88-11.22 32.64-15.97 51.04-44.24 54.68-84.04z" fill="#bde953"/><path d="m391.44 317.58c-5.87 64.07-42.67 94.53-72.51 108.81-18.23 8.72-35.95 12.45-47.93 14.06v62.32c-9.16-3.48-15-6.63-15-6.63v-400.15s5.62 6.23 15 16.04v195.93c4.02-1.32 8.47-3.23 12.84-6.01 17.58-11.17 26.49-31.39 26.49-60.11h30c0 50.39-22.78 74.77-41.89 86.35-9.92 6.01-19.73 9.17-27.44 10.84v71.08c9.61-1.58 22.69-4.77 35.88-11.22 32.64-15.97 51.04-44.24 54.68-84.04z" fill="#00dc7d"/></g></svg>