<svg id="Capa_1" enable-background="new 0 0 512 512" height="512" viewBox="0 0 512 512" width="512" xmlns="http://www.w3.org/2000/svg"><g><path d="m415.64 325.36c-65.16 65.16-278.1 186.51-278.1 186.51l-68.7-68.7-68.71-68.71s121.35-212.94 186.51-278.1c137.4-137.41 307.51-78.51 307.51-78.51s58.9 170.11-78.51 307.51z" fill="#53c7ff"/><path d="m415.64 325.36c-65.16 65.16-278.1 186.51-278.1 186.51l-68.7-68.7 425.31-425.32s58.9 170.11-78.51 307.51z" fill="#48a4ff"/><path d="m432.91 79.12h-.03c-51.66-6.43-105.79 3.41-152.83 31.33-8.5 5.04-14.67 24.64-14.67 24.64s-25.75 5.35-33.1 12.8c-4.78 4.79-14.47 15.23-27.55 31.12-13.07 15.89-29.55 37.24-47.9 63.84l-7.8 34.51-25.86 17.23c-13.56 22.34-31.65 52.73-41.44 69.86l32.91 32.91 32.91 32.91c17.13-9.79 47.52-27.88 69.86-41.44l20.39-25.05 31.35-8.61c53.2-36.71 85.38-65.88 94.96-75.45 3.91-3.83 6.7-11.75 8.51-18.72 1.82-6.96 2.66-12.97 2.66-12.97s21.45-8.02 26.23-16.12c27.27-46.15 38.25-100.55 31.4-152.79z" fill="#48a4ff"/><path d="m401.51 231.91c-4.78 8.1-26.23 16.12-26.23 16.12s-.84 6.01-2.66 12.97c-1.81 6.97-4.6 14.89-8.51 18.72-9.58 9.57-41.76 38.74-94.96 75.45l-31.35 8.61-20.39 25.05c-22.34 13.56-52.73 31.65-69.86 41.44l-32.91-32.91 318.24-318.24h.03c6.85 52.24-4.13 106.64-31.4 152.79z" fill="#2688e9"/><g fill="#443c67"><path d="m512 21.21-77.36 77.37-10.66-10.56-10.66-10.55 77.47-77.47 10.61 10.61z"/><path d="m269.15 355.17c-15.34 10.59-32.52 21.89-51.55 33.66l-47.21-47.21-47.22-47.22c11.77-19.03 23.07-36.21 33.66-51.55l56.16 56.16z"/><path d="m401.51 231.91c-10.2 17.28-22.7 33.4-37.4 47.81l-131.83-131.83c14.7-14.9 30.77-27.35 47.77-37.44l60.75 60.75z"/></g><path d="m212.99 299.01 56.16 56.16c-15.34 10.59-32.52 21.89-51.55 33.66l-47.21-47.21z" fill="#3d294f"/><path d="m340.8 171.2 60.71 60.71c-10.2 17.28-22.7 33.4-37.4 47.81l-65.91-65.91z" fill="#3d294f"/><path d="m512 21.21-77.36 77.37-10.66-10.56 77.42-77.41z" fill="#3d294f"/><path d="m134.033 32.238h30v233.591h-30z" fill="#443c67" transform="matrix(.707 -.707 .707 .707 -61.732 149.033)"/><path d="m38.009 83.81-38.009-38.009 45.801-45.801 38.009 38.009v24.588l-21.213 21.213z" fill="#fe534e"/><path d="m348.784 245.833h30v235.902h-30z" fill="#3d294f" transform="matrix(.707 -.707 .707 .707 -150.684 363.784)"/><path d="m428.19 473.991 38.009 38.009 45.801-45.801-38.009-38.009h-24.588l-21.213 21.213z" fill="#e50057"/></g></svg>