<svg id="Capa_1" enable-background="new 0 0 512 512" height="512" viewBox="0 0 512 512" width="512" xmlns="http://www.w3.org/2000/svg"><g><path d="m512 192.91-68.2 44.45-15-10.6-15 30.15v255.09h-315.6v-255.09l-15-30.15-15 10.6-68.2-44.45 66.64-162.28 125.36-30.63c19.84 10.06 41.92 41.9 64 41.9s44.16-31.84 64-41.9l125.36 30.63z" fill="#fff4f4"/><path d="m512 192.91-68.2 44.45-15-10.6-15 30.15v255.09h-157.8v-470.1c22.08 0 44.16-31.84 64-41.9l125.36 30.63z" fill="#eee6f2"/><path d="m98.2 196.61v60.3l-30-19.55v-40.75z" fill="#eee6f2"/><path d="m443.8 196.61v40.75l-30 19.55v-60.3z" fill="#cfcfe8"/><path d="m320 0v32c0 17.68-7.16 33.68-18.74 45.26s-27.58 18.74-45.26 18.74c-35.35 0-64-28.65-64-64v-32c19.84 10.06 41.92 15.08 64 15.08s44.16-5.02 64-15.08z" fill="#eee6f2"/><path d="m320 0v32c0 17.68-7.16 33.68-18.74 45.26s-27.58 18.74-45.26 18.74v-80.92c22.08 0 44.16-5.02 64-15.08z" fill="#cfcfe8"/><path d="m278.233 282.569 24.256 17.654 13.743-18.884 13.71 18.903 24.285-17.614-13.724-18.922 22.236-7.232-9.28-28.53-22.209 7.224v-23.344h-30v23.357l-22.227-7.215-9.262 28.535 22.2 7.205z" fill="#e50057"/><path d="m232.959 302.834-22.209 7.224v-23.344h-30v23.356l-22.227-7.214-9.262 28.535 22.2 7.205-13.728 18.863 24.256 17.653 13.742-18.882 13.711 18.903 24.285-17.614-13.725-18.923 22.237-7.232z" fill="#fe534e"/><path d="m353.459 377.724-22.209 7.224v-23.344h-30v23.356l-22.227-7.214-9.262 28.534 22.2 7.206-13.728 18.863 24.256 17.653 13.742-18.883 13.711 18.903 24.285-17.614-13.725-18.922 22.237-7.233z" fill="#e50057"/></g></svg>