<svg id="Capa_1" enable-background="new 0 0 512 512" height="512" viewBox="0 0 512 512" width="512" xmlns="http://www.w3.org/2000/svg"><g><path d="m511.8 388.93c.13 4.2-14.8 12.65-14.8 12.65h-170.5c-.66-4.21-1.44-8.43-2.35-12.65-3.88-18.08-10.07-36.19-18.52-53.83-2.14-4.47 5.54-20.6 5.54-20.6s-17.37-1.47-20.09-5.79c-8.24-13.13-17.8-25.84-28.66-37.91-3.32-3.69-1.42-19.8-1.42-19.8s-16.11 1.9-19.8-1.42c-12.07-10.85-24.78-20.42-37.91-28.66-4.32-2.71-7.16-19.8-7.16-19.8s-14.76 7.39-19.23 5.25c-17.67-8.45-35.8-14.64-53.9-18.53-4.22-.91-8.45-1.69-12.66-2.35l.08-170.49s8.36-14.94 12.52-14.8c46.21 1.41 90.45 10.63 131.45 26.38 4.69 1.8 7.55 18.16 7.55 18.16s15.52-8.48 20.03-6.35c37.4 17.69 71.63 40.99 101.6 68.82 3.67 3.4.68 20.54.68 20.54s17.14-2.99 20.54.68c27.83 29.97 51.13 64.2 68.82 101.6 2.13 4.51-3.81 18.66-3.81 18.66s13.82 4.23 15.62 8.92c15.74 40.96 24.96 85.16 26.38 131.32z" fill="#fe534e"/><path d="m511.8 388.93c.13 4.2-14.8 12.65-14.8 12.65h-170.5c-.66-4.21-1.44-8.43-2.35-12.65-3.88-18.08-10.07-36.19-18.52-53.83-2.14-4.47 5.54-20.6 5.54-20.6s-17.37-1.47-20.09-5.79c-8.24-13.13-17.8-25.84-28.66-37.91-3.32-3.69-1.42-19.8-1.42-19.8l123.25-123.25s17.14-2.99 20.54.68c27.83 29.97 51.13 64.2 68.82 101.6 2.13 4.51-3.81 18.66-3.81 18.66s13.82 4.23 15.62 8.92c15.74 40.96 24.96 85.16 26.38 131.32z" fill="#e50057"/><path d="m512 401.58v17.35h-403.93l-15-15-.13-403.86v-.07h17.48c4.19 0 8.36.06 12.52.2l.06 187.64.05 143.46 53.85-124.93 77.49-179.79c9.37 3.6 18.57 7.54 27.58 11.81l-78.68 182.53-50.44 117.02 88.35-88.36 142.37-142.37c3.67 3.4 7.27 6.87 10.81 10.41s7.01 7.14 10.41 10.81l-142.37 142.37-88.35 88.34 117.01-50.43 182.53-78.68c4.27 9.01 8.21 18.21 11.81 27.58l-179.79 77.49-124.87 53.83h331.04c.13 4.2.2 8.42.2 12.65z" fill="#443c67"/><path d="m512 401.58v17.35h-403.93l-7.5-7.5 293.81-293.81c3.54 3.54 7.01 7.14 10.41 10.81l-142.37 142.37-88.35 88.34 117.01-50.43 182.53-78.68c4.27 9.01 8.21 18.21 11.81 27.58l-179.79 77.49-124.87 53.83h331.04c.13 4.2.2 8.42.2 12.65z" fill="#3d294f"/><path d="m73.61 459.6c-12 12-16.85 29.03-12.98 45.56l-29.21 6.84c-2.37-10.13-2.71-20.38-1.16-30.26-3.99.62-8.03.95-12.1.95-6.03 0-12.11-.69-18.16-2.11l6.84-29.21c16.53 3.87 33.56-.98 45.56-12.98l33.03-33.04 10.61 10.61 10.61 10.61z" fill="#fe534e"/><path d="m73.61 459.6c-12 12-16.85 29.03-12.98 45.56l-29.21 6.84c-2.37-10.13-2.71-20.38-1.16-30.26l65.78-65.78 10.61 10.61z" fill="#e50057"/><circle cx="129.26" cy="382.74" fill="#66518e" r="53.514"/><path d="m167.1 420.58c-20.9 20.9-54.78 20.9-75.68 0l75.68-75.68c20.9 20.9 20.9 54.78 0 75.68z" fill="#443c67"/><path d="m114.262 367.742h29.995v29.995h-29.995z" fill="#443c67" transform="matrix(.707 -.707 .707 .707 -232.779 203.503)"/><path d="m119.567 380.55h29.995v14.991h-29.995z" fill="#3d294f" transform="matrix(.707 -.707 .707 .707 -234.976 208.808)"/></g></svg>