<svg id="Capa_1" enable-background="new 0 0 512 512" height="512" viewBox="0 0 512 512" width="512" xmlns="http://www.w3.org/2000/svg"><g><path d="m512 144v352h-512v-352l256-19.42z" fill="#fff4f4"/><path d="m512 144v352h-256v-371.42z" fill="#eee6f2"/><path d="m0 48h512v96h-512z" fill="#53c7ff"/><path d="m256 48h256v96h-256z" fill="#48a4ff"/><path d="m64 16h64v64.011h-64z" fill="#443c67"/><path d="m384 16h64v64.011h-64z" fill="#3d294f"/><path d="m303.44 342.61c-.14.45-.16.49-.3.93 5.18 4.57 30.48 26.88 30.48 26.88 8.76 7.73 13.07 18.35 13.07 28.95 0 11.82-5.37 23.6-15.92 31.26-20 14.53-48.32 6.79-58.14-15.91l-16.14-37.29h-.98l-16.14 37.29c-6.42 14.85-20.76 23.3-35.51 23.3-7.8 0-15.71-2.36-22.63-7.39-20.01-14.53-21.39-43.86-2.85-60.21 0 0 25.3-22.31 30.48-26.88-.14-.44-.16-.48-.3-.93l-40.45-3.82c-20.43-1.93-35.01-19.17-35.01-38.42 0-3.94.61-7.97 1.91-11.97 7.64-23.52 35.11-33.89 56.39-21.31l34.98 20.68c.38-.27.41-.3.79-.57l-8.86-39.66c-.64-2.86-.94-5.71-.94-8.5 0-20.74 16.83-38.54 38.63-38.54 24.73 0 43.08 22.91 37.69 47.04l-8.86 39.66c.38.27.41.3.79.57l34.98-20.68c6.22-3.68 12.97-5.39 19.6-5.39 16.05 0 31.38 10.06 36.79 26.7 7.64 23.52-8.48 48.06-33.1 50.39z" fill="#fe534e"/><path d="m303.44 342.61c-.14.45-.16.49-.3.93 5.18 4.57 30.48 26.88 30.48 26.88 8.76 7.73 13.07 18.35 13.07 28.95 0 11.82-5.37 23.6-15.92 31.26-20 14.53-48.32 6.79-58.14-15.91l-16.14-37.29h-.49v-176.93c24.73 0 43.08 22.91 37.69 47.04l-8.86 39.66c.38.27.41.3.79.57l34.98-20.68c6.22-3.68 12.97-5.39 19.6-5.39 16.05 0 31.38 10.06 36.79 26.7 7.64 23.52-8.48 48.06-33.1 50.39z" fill="#e50057"/><path d="m241 312.71h30v30h-30z" fill="#ffd0e5"/><path d="m256 312.71h15v30h-15z" fill="#f7abcd"/></g></svg>