<svg id="Capa_1" enable-background="new 0 0 512 512" height="512" viewBox="0 0 512 512" width="512" xmlns="http://www.w3.org/2000/svg"><g><path d="m512 292.732v86.535c0 47.793-38.743 86.535-86.535 86.535h-55.465v-57.69h55.465c15.928 0 28.845-12.917 28.845-28.845v-86.535c.074-15.378-12.635-28.707-28.845-28.845h-55.465v-57.69h55.465c47.316-.041 86.564 38.552 86.535 86.535z" fill="#cfcfe8"/><path d="m384 160v352h-252.25l-35.75-15-32-73.975v-263.025h81l15 8.45 15-8.45z" fill="#fff4f4"/><path d="m224 160h160v352h-160z" fill="#eee6f2"/><path d="m145 160h30v115.836h-30z" fill="#eee6f2"/><path d="m156.25 416c-33.275 0-60.25 26.975-60.25 60.25 0-33.275-26.975-60.25-60.25-60.25h-35.75v35.75c0 33.275 26.975 60.25 60.25 60.25h35.75 35.75c33.275 0 60.25-26.975 60.25-60.25v-35.75z" fill="#bde953"/><path d="m96 512h35.75c33.275 0 60.25-26.975 60.25-60.25v-35.75h-35.75c-33.275 0-60.25 26.975-60.25 60.25z" fill="#00dc7d"/><path d="m124.421 252.421h71.158v71.158h-71.158z" fill="#00dc7d"/><path d="m240.88 75.37v41.39h-30v-41.39c0-25.02-20.36-45.37-45.37-45.37h-60.13v-30h60.13c23.58 0 44.67 10.89 58.49 27.9 10.55 12.97 16.88 29.49 16.88 47.47z" fill="#eee6f2"/><path d="m240.88 75.37v41.39h-16.88v-88.86c10.55 12.97 16.88 29.49 16.88 47.47z" fill="#cfcfe8"/><path d="m180.625 116.758h-30v-26.508h-45.25v-30h75.25z" fill="#eee6f2"/><path d="m271.125 61.374h30v55.385h-30z" fill="#cfcfe8"/></g></svg>