<svg id="Capa_1" enable-background="new 0 0 512 512" height="512" viewBox="0 0 512 512" width="512" xmlns="http://www.w3.org/2000/svg"><g><path d="m404.8 186.83c-.18.58-.2.63-.39 1.21l34.34 30.29c22.34 19.7 29.59 50.65 19.81 77.55l-31.06-16.12 5.74 34.52c-28.61.99-55.81-15.47-67.64-42.8l-18.19-42.02h-1.28l-18.19 42.02c-11.83 27.33-39.03 43.79-67.64 42.8l5.74-34.52-31.05 16.12c-9.79-26.9-2.54-57.85 19.8-77.55l34.34-30.29c-.19-.58-.2-.63-.39-1.21l-45.59-4.31c-29.64-2.81-53.71-23.59-61.6-51.11l34.6-5.21-24.93-24.55c22.56-17.62 54.24-20.29 79.88-5.13l39.41 23.3c.49-.36.54-.39 1.03-.75l-9.98-44.68c-6.5-29.07 5.84-58.37 29.56-74.39l15.65 31.3 15.65-31.3c23.72 16.02 36.06 45.32 29.56 74.39l-9.98 44.68c.49.36.54.39 1.03.75l39.42-23.3c25.63-15.16 57.32-12.49 79.87 5.13l-24.92 24.55 34.6 5.21c-7.9 27.52-31.96 48.3-61.61 51.11z" fill="#ffd0e5"/><path d="m404.8 186.83c-.18.58-.2.63-.39 1.21l34.34 30.29c22.34 19.7 29.59 50.65 19.81 77.55l-31.06-16.12 5.74 34.52c-28.61.99-55.81-15.47-67.64-42.8l-18.19-42.02h-.64v-198.16l15.65-31.3c23.72 16.02 36.06 45.32 29.56 74.39l-9.98 44.68c.49.36.54.39 1.03.75l39.42-23.3c25.63-15.16 57.32-12.49 79.87 5.13l-24.92 24.55 34.6 5.21c-7.9 27.52-31.96 48.3-61.61 51.11z" fill="#f7abcd"/><path d="m478.66 321.54c-35.74 33.99-82.72 55.33-131.89 57.79-3.61.18-7.22.26-10.85.23-54.57 0-105.73-21.11-144.05-59.43s-59.43-89.48-59.43-144.05c-.23-53.25 21.48-104.47 58.02-142.75l-14.47-20.85c-52.08 17.89-98.15 51.16-129.65 96.59-30.31 43.18-46.34 93.99-46.34 146.93 0 68.21 26.67 132.45 75.11 180.89 48.44 48.43 112.68 75.11 180.89 75.11 31.39 0 62.03-5.63 90.77-16.54 19.74-7.49 38.58-17.46 56.16-29.8 45.48-31.66 78.85-77.65 96.58-129.65z" fill="#ffe127"/><path d="m499.51 336.01c-17.73 52-51.1 97.99-96.58 129.65-17.58 12.34-36.42 22.31-56.16 29.8v-116.13c49.17-2.46 96.15-23.8 131.89-57.79z" fill="#ffbf2d"/><path d="m331.77 153.64h30v30h-30z" fill="#f7abcd"/><path d="m346.77 153.64h15v30h-15z" fill="#e47da8"/></g></svg>