<svg id="Capa_1" enable-background="new 0 0 512 512" height="512" viewBox="0 0 512 512" width="512" xmlns="http://www.w3.org/2000/svg"><g><path d="m389.22 258.11-38.01 253.89h-190.42l-38.01-253.89 133.22-27.33z" fill="#ffbf2d"/><path d="m389.22 258.11-38.01 253.89h-95.21v-281.22z" fill="#ffa032"/><path d="m241 421.75h30v30h-30z" fill="#ffe127"/><path d="m241 361.5h30v30h-30z" fill="#ffe127"/><g fill="#ffbf2d"><path d="m256 361.5h15v30h-15z"/><path d="m256 421.75h15v30h-15z"/><path d="m286.125 391.625h30v30h-30z"/></g><path d="m195.75 391.625h30v30h-30z" fill="#ffe127"/><path d="m241 0h30v69.84h-30z" fill="#fe534e"/><path d="m256 0h15v69.84h-15z" fill="#e50057"/><path d="m180.75 331.375h30v30h-30z" fill="#ffe127"/><path d="m431.15 162.91-14.83 95.2h-320.64l-14.83-95.2z" fill="#ffe127"/><path d="m431.15 162.91-14.83 95.2h-160.32v-95.2z" fill="#ffbf2d"/><path d="m431.15 162.91h-350.3c23.39-70.55 86.85-120.44 160.15-126.36 4.96-.4 15 10.05 15 10.05s10.04-10.47 15-10.07c73.25 5.8 136.67 55.92 160.15 126.38z" fill="#fff4f4"/><path d="m431.15 162.91h-175.15v-116.31s10.04-10.47 15-10.07c73.25 5.8 136.67 55.92 160.15 126.38z" fill="#eee6f2"/><path d="m271 36.53v126.38h-30v-126.36c4.96-.4 9.96-.6 15-.59 5.04-.02 10.04.17 15 .57z" fill="#ffd0e5"/><path d="m271 36.53v126.38h-15v-126.95c5.04-.02 10.04.17 15 .57z" fill="#f7abcd"/><path d="m61.44 150.62h389.12v30h-389.12z" fill="#ffbf2d"/><path d="m256 150.62h194.56v30h-194.56z" fill="#ffa032"/></g></svg>