<svg id="Capa_1" enable-background="new 0 0 512 512" height="512" viewBox="0 0 512 512" width="512" xmlns="http://www.w3.org/2000/svg"><g><path d="m512 214.515v82.97c0 47.793-38.743 86.535-86.535 86.535h-75.664v-57.69h75.664c15.928 0 28.845-12.917 28.845-28.845v-82.97c.074-15.378-12.635-28.707-28.845-28.845h-75.664v-57.69h75.664c47.316-.042 86.564 38.552 86.535 86.535z" fill="#cfcfe8"/><path d="m405.13 63.97-33.639 384.06h-337.82l-33.671-384.06z" fill="#fff4f4"/><path d="m405.13 63.97-33.639 384.06h-168.926v-384.06z" fill="#eee6f2"/><path d="m250.003 279.35c-.14.45-.16.49-.3.93 5.18 4.57 30.48 26.88 30.48 26.88 8.76 7.73 13.07 18.35 13.07 28.95 0 11.82-5.37 23.6-15.92 31.26-20 14.53-48.32 6.79-58.14-15.91l-16.14-37.29h-.98l-16.14 37.29c-6.42 14.85-20.76 23.3-35.51 23.3-7.8 0-15.71-2.36-22.63-7.39-20.01-14.53-21.39-43.86-2.85-60.21 0 0 25.3-22.31 30.48-26.88-.14-.44-.16-.48-.3-.93l-40.45-3.82c-20.43-1.93-35.01-19.17-35.01-38.42 0-3.94.61-7.97 1.91-11.97 7.64-23.52 35.11-33.89 56.39-21.31l34.98 20.68c.38-.27.41-.3.79-.57l-8.86-39.66c-.64-2.86-.94-5.71-.94-8.5 0-20.74 16.83-38.54 38.63-38.54 24.73 0 43.08 22.91 37.69 47.04l-8.86 39.66c.38.27.41.3.79.57l34.98-20.68c6.22-3.68 12.97-5.39 19.6-5.39 16.05 0 31.38 10.06 36.79 26.7 7.64 23.52-8.48 48.06-33.1 50.39z" fill="#fe534e"/><path d="m250.003 279.35c-.14.45-.16.49-.3.93 5.18 4.57 30.48 26.88 30.48 26.88 8.76 7.73 13.07 18.35 13.07 28.95 0 11.82-5.37 23.6-15.92 31.26-20 14.53-48.32 6.79-58.14-15.91l-16.14-37.29h-.49v-176.93c24.73 0 43.08 22.91 37.69 47.04l-8.86 39.66c.38.27.41.3.79.57l34.98-20.68c6.22-3.68 12.97-5.39 19.6-5.39 16.05 0 31.38 10.06 36.79 26.7 7.64 23.52-8.48 48.06-33.1 50.39z" fill="#e50057"/><path d="m187.563 249.45h30v30h-30z" fill="#ffd0e5"/><path d="m202.563 249.45h15v30h-15z" fill="#f7abcd"/></g></svg>