<svg id="Capa_1" enable-background="new 0 0 513.37 513.37" height="512" viewBox="0 0 513.37 513.37" width="512" xmlns="http://www.w3.org/2000/svg"><g><path d="m513.37.685v30h-437.51v-30h45.52l69.22 7.96 85.25-7.96z" fill="#443c67"/><path d="m513.37.685v30h-322.77v-22.04l85.25-7.96z" fill="#3d294f"/><path d="m248.46 45.475c-5.9 6.41-6.92 15.22 0 22.7 17.36 19.04 11.72 47.44 0 59.58-5.9 6.41-6.91 15.22 0 22.7 17.36 19.04 11.72 47.45 0 59.58-3.43 4.4-4.85 6.22-4.85 11.36h-122.04c0-15.44 6.72-24.08 11.17-29.79 5.91-6.42 6.92-15.23 0-22.71-4.45-5.72-11.17-14.35-11.17-29.79s6.72-24.08 11.18-29.79c5.9-6.42 6.91-15.22 0-22.7-17.37-19.04-11.73-47.45 0-59.58 3.42-4.4 4.84-6.22 4.84-11.35v-7.04l13.79-7.96h32.23l6.99 7.96 23.01-7.96h32.24l13.79 7.96v7.04c0 15.44-6.73 24.07-11.18 29.79z" fill="#ffbf2d"/><path d="m248.46 45.475c-5.9 6.41-6.92 15.22 0 22.7 17.36 19.04 11.72 47.44 0 59.58-5.9 6.41-6.91 15.22 0 22.7 17.36 19.04 11.72 47.45 0 59.58-3.43 4.4-4.85 6.22-4.85 11.36h-53.01v-212.75l23.01-7.96h32.24l13.79 7.96v7.04c0 15.44-6.73 24.07-11.18 29.79z" fill="#ffa032"/><path d="m135.353 221.391h-30c0-15.438 6.727-24.075 11.178-29.79 5.902-6.417 6.916-15.224 0-22.709-4.451-5.715-11.178-14.352-11.178-29.79s6.727-24.073 11.179-29.788c5.902-6.417 6.914-15.218 0-22.703-17.363-19.037-11.724-47.441 0-59.575 3.427-4.398 4.845-6.219 4.845-11.351v-15h30v15c0 15.438-6.727 24.073-11.179 29.787-5.901 6.418-6.915 15.218 0 22.703 17.363 19.035 11.725 47.442 0 59.575-5.902 6.418-6.914 15.221 0 22.706 17.362 19.039 11.724 47.445 0 59.58-3.427 4.4-4.845 6.221-4.845 11.355z" fill="#ffe127"/><path d="m259.829 221.391h-30c0-15.438 6.727-24.075 11.178-29.79 5.902-6.417 6.916-15.224 0-22.709-4.451-5.715-11.178-14.352-11.178-29.79s6.727-24.073 11.179-29.788c5.902-6.417 6.914-15.218 0-22.703-17.363-19.037-11.724-47.441 0-59.575 3.427-4.398 4.845-6.219 4.845-11.351v-15h30v15c0 15.438-6.727 24.073-11.179 29.787-5.901 6.418-6.915 15.218 0 22.703 17.363 19.035 11.725 47.442 0 59.575-5.902 6.418-6.914 15.221 0 22.706 17.362 19.039 11.724 47.445 0 59.58-3.427 4.4-4.845 6.221-4.845 11.355z" fill="#ffbf2d"/><path d="m202.44 45.475c-5.91 6.41-6.92 15.22 0 22.7 17.36 19.04 11.72 47.44 0 59.58-5.91 6.41-6.92 15.22 0 22.7 17.36 19.04 11.72 47.45 0 59.58-3.43 4.4-4.85 6.22-4.85 11.36h-30c0-15.44 6.73-24.08 11.18-29.79 5.9-6.42 6.91-15.23 0-22.71-4.45-5.72-11.18-14.35-11.18-29.79s6.73-24.08 11.18-29.79c5.9-6.42 6.91-15.22 0-22.7-17.36-19.04-11.72-47.45 0-59.58 3.43-4.4 4.84-6.22 4.84-11.35v-15h30v15c0 15.44-6.72 24.07-11.17 29.79z" fill="#ffe127"/><path d="m202.44 45.475c-5.91 6.41-6.92 15.22 0 22.7 17.36 19.04 11.72 47.44 0 59.58-5.91 6.41-6.92 15.22 0 22.7 17.36 19.04 11.72 47.45 0 59.58-3.43 4.4-4.85 6.22-4.85 11.36h-6.99v-220.71h23.01v15c0 15.44-6.72 24.07-11.17 29.79z" fill="#ffbf2d"/><path d="m381.21 281.925v37.7c0 29.14-5.79 51.01-16.73 70.75-10.93 19.75-27.03 37.35-47.63 57.96l-126.25 15.77-126.25-15.77c-41.2-41.21-64.35-70.44-64.35-128.71v-37.7l190.6-16.23z" fill="#fff4f4"/><path d="m381.21 281.925v37.7c0 29.14-5.79 51.01-16.73 70.75-10.93 19.75-27.03 37.35-47.63 57.96l-126.25 15.77v-198.41z" fill="#eee6f2"/><path d="m75.86 60.935h437.51v30h-437.51z" fill="#443c67"/><path d="m190.6 60.935h322.77v30h-322.77z" fill="#3d294f"/><path d="m64.35 448.335h252.5v64.35h-252.5z" fill="#eee6f2"/><path d="m190.6 448.335h126.25v64.35h-126.25z" fill="#cfcfe8"/><path d="m0 217.565h381.21v64.36h-381.21z" fill="#fe534e"/><path d="m190.6 217.565h190.61v64.36h-190.61z" fill="#e50057"/></g></svg>