<svg id="Capa_1" enable-background="new 0 0 512 512" height="512" viewBox="0 0 512 512" width="512" xmlns="http://www.w3.org/2000/svg"><g><path d="m480 153.344v109.94c0 47.52-38.51 86.03-86.03 86.03h-275.94c-47.52 0-86.03-38.51-86.03-86.03v-109.94z" fill="#fff4f4"/><path d="m480 153.344v109.94c0 47.52-38.51 86.03-86.03 86.03h-137.96v-195.97z" fill="#eee6f2"/><path d="m32 397.638h64v77.677h-64z" fill="#443c67"/><path d="m416 397.638h64v77.677h-64z" fill="#3d294f"/><path d="m0 347.314h512v64h-512z" fill="#fe534e"/><path d="m256.01 347.314h255.99v64h-255.99z" fill="#e50057"/><path d="m120.5 268.429h30v30h-30z" fill="#eee6f2"/><path d="m241 268.434h30v30h-30z" fill="#eee6f2"/><path d="m256.01 268.434h14.99v30h-14.99z" fill="#cfcfe8"/><path d="m361.5 268.429h30v30h-30z" fill="#cfcfe8"/><path d="m180.75 238.304h30v30h-30z" fill="#eee6f2"/><path d="m301.25 238.304h30v30h-30z" fill="#cfcfe8"/><path d="m512 165.024v57.84c-39.73-12.41-80.01-21.18-120.5-26.42-4.98-.65-14.98-13.33-14.98-13.33s-10 10.52-15.02 10.09c-30.15-2.61-60.37-3.27-90.5-2.05-5.02.21-14.99-10.46-14.99-10.46s-10.03 11.91-15.01 12.32c-30.31 2.5-60.49 6.91-90.38 13.21-5.05 1.06-15.14-8.21-15.14-8.21s-9.99 13.93-14.98 15.2c-17 4.31-33.89 9.24-50.64 14.77-34.43 11.36-69.86-14.42-69.86-50.67 0-37.29 14.58-71.43 38.48-96.69 21.24-22.44 49.82-37.87 82.06-42.27 4.04-.55 12.82 8.67 12.82 8.67s11.22-10.25 17.14-10.31c29.71-.32 60.19 2.02 90.5 6.73 5.01.77 15 11.76 15 11.76s0 0 .01-.01c.43-.31 10.11-7.34 14.99-6.32 31.02 6.4 61.53 15.19 90.5 26.03 5.6 2.1 17.14 16.32 17.14 16.32s8.47-6.05 12.89-4.1c47.43 20.92 89.3 47.46 120.47 77.9z" fill="#fe534e"/><path d="m512 165.024v57.84c-39.73-12.41-80.01-21.18-120.5-26.42-4.98-.65-14.98-13.33-14.98-13.33s-10 10.52-15.02 10.09c-30.15-2.61-60.37-3.27-90.5-2.05-5.02.21-14.99-10.46-14.99-10.46v-125.5c.43-.31 10.11-7.34 14.99-6.32 31.02 6.4 61.53 15.19 90.5 26.03 5.6 2.1 17.14 16.32 17.14 16.32s8.47-6.05 12.89-4.1c47.43 20.92 89.3 47.46 120.47 77.9z" fill="#e50057"/><path d="m182.55 112.704c-10.137 20.391-29.053 61.742-31.93 93.52-10.07 2.11-20.12 4.44-30.12 6.99-1.245-31.656 19.797-81.298 28.32-99.66-8.82-16.66-27.32-53.93-28.28-75.2 4.04-.55 8.15-.93 12.3-1.13 5.85-.28 11.74-.45 17.66-.51.155 14.219 19.761 54.512 32.05 75.99z" fill="#ffe127"/><path d="m308.64 121.434c-13.56 15.76-38 43.32-37.64 69.72-5 .2-9.99.46-14.99.77s-10.01.67-15.01 1.09c-1.53-16.56 6.17-35.63 15.01-51.14 4.63-8.14 9.59-15.3 13.69-20.61-4.13-5.33-9.07-12.76-13.69-21.36-8.94-16.65-16.69-37.7-15.01-56.46 5.01.77 10.01 1.61 15.01 2.52 5 .9 10 1.87 14.99 2.91.73 29.6 23.84 56.32 37.64 72.56z" fill="#ffe127"/><g fill="#ffbf2d"><path d="m308.64 121.434c-13.56 15.76-38 43.32-37.64 69.72-5 .2-9.99.46-14.99.77v-50.05c4.63-8.14 9.59-15.3 13.69-20.61-4.13-5.33-9.07-12.76-13.69-21.36v-53.94c5 .9 10 1.87 14.99 2.91.73 29.6 23.84 56.32 37.64 72.56z"/><path d="m414.02 147.774c-10.169 11.165-23.73 27.838-22.52 48.67-9.99-1.3-19.99-2.38-30-3.24-.918-18.159 9.514-38.933 16.52-48.66-7.884-14.486-18.718-46.372-16.52-69.64 10.22 3.83 20.24 7.9 30.03 12.22 1.984 25.177 13.876 45.63 22.49 60.65z"/></g></g></svg>