<svg id="Capa_1" enable-background="new 0 0 512 512" height="512" viewBox="0 0 512 512" width="512" xmlns="http://www.w3.org/2000/svg"><g><path d="m208.219 476.261-3.66-29.775 190.805-23.453 25.283-75.746 28.457 9.499-31.281 93.711z" fill="#3d294f"/><circle cx="434.876" cy="352.037" fill="#e50057" r="32.029"/><path d="m390.735 197.408-67.391-53.418-24.698-108.62 29.253-6.652 22.357 98.322 59.114 46.858z" fill="#3d294f"/><path d="m193.93 400.365-20.47 21.93-50.56-47.18-15-14v-122.64h30v109.61z" fill="#443c67"/><path d="m193.93 400.365-20.47 21.93-50.56-47.18v-136.64h15v109.61z" fill="#3d294f"/><circle cx="313.273" cy="32.044" fill="#e50057" r="32.029"/><path d="m170.34 220.81c-.14.45-.16.49-.3.93 5.18 4.57 30.48 26.88 30.48 26.88 8.76 7.73 13.07 18.35 13.07 28.95 0 11.82-5.37 23.6-15.92 31.26-20 14.53-48.32 6.79-58.14-15.91l-16.14-37.29h-.98l-16.14 37.29c-6.42 14.85-20.76 23.3-35.51 23.3-7.8 0-15.71-2.36-22.63-7.39-20.01-14.53-21.39-43.86-2.85-60.21 0 0 25.3-22.31 30.48-26.88-.14-.44-.16-.48-.3-.93l-40.45-3.82c-20.43-1.93-35.01-19.17-35.01-38.42 0-3.94.61-7.97 1.91-11.97 7.64-23.52 35.11-33.89 56.39-21.31l34.98 20.68c.38-.27.41-.3.79-.57l-8.86-39.66c-.64-2.86-.94-5.71-.94-8.5 0-20.74 16.83-38.54 38.63-38.54 24.73 0 43.08 22.91 37.69 47.04l-8.86 39.66c.38.27.41.3.79.57l34.98-20.68c6.22-3.68 12.97-5.39 19.6-5.39 16.05 0 31.38 10.06 36.79 26.7 7.64 23.52-8.48 48.06-33.1 50.39z" fill="#fe534e"/><path d="m170.34 220.81c-.14.45-.16.49-.3.93 5.18 4.57 30.48 26.88 30.48 26.88 8.76 7.73 13.07 18.35 13.07 28.95 0 11.82-5.37 23.6-15.92 31.26-20 14.53-48.32 6.79-58.14-15.91l-16.14-37.29h-.49v-176.93c24.73 0 43.08 22.91 37.69 47.04l-8.86 39.66c.38.27.41.3.79.57l34.98-20.68c6.22-3.68 12.97-5.39 19.6-5.39 16.05 0 31.38 10.06 36.79 26.7 7.64 23.52-8.48 48.06-33.1 50.39z" fill="#e50057"/><path d="m107.9 190.91h30v30h-30z" fill="#ffd0e5"/><path d="m512 64.045-47.7 159.98-114.91 50.42-10.59 89.05-151.54 148.49h-187.26l122.9-91.41 135.22-100.57 35.27-95.98 110.06-42.74 74.93-117.24z" fill="#66518e"/><path d="m512 64.045-47.7 159.98-114.91 50.42-10.59 89.05-151.54 148.49h-64.36v-91.41l135.22-100.57 35.27-95.98 110.06-42.74 74.93-117.24z" fill="#443c67"/><path d="m122.9 190.91h15v30h-15z" fill="#f7abcd"/></g></svg>