<svg id="Capa_1" enable-background="new 0 0 512 512" height="512" viewBox="0 0 512 512" width="512" xmlns="http://www.w3.org/2000/svg"><g><path d="m256 192.92c0 66.55-53.95 120.5-120.5 120.5h-.05c-66.53-.03-120.45-53.97-120.45-120.5s53.92-120.47 120.45-120.5h.05c66.55 0 120.5 53.95 120.5 120.5z" fill="#fff4f4"/><path d="m256 192.92c0 66.55-53.95 120.5-120.5 120.5h-.05v-241h.05c66.55 0 120.5 53.95 120.5 120.5z" fill="#eee6f2"/><path d="m135.5 57.42h-.05c-74.69.03-135.45 60.8-135.45 135.5 0 74.69 60.76 135.47 135.45 135.5h.05c74.71 0 135.5-60.79 135.5-135.5 0-74.72-60.79-135.5-135.5-135.5zm0 241h-.05c-58.15-.03-105.45-47.35-105.45-105.5s47.3-105.47 105.45-105.5h.05c58.17 0 105.5 47.33 105.5 105.5s-47.33 105.5-105.5 105.5z" fill="#443c67"/><path d="m271 192.92c0 74.71-60.79 135.5-135.5 135.5h-.05v-30h.05c58.17 0 105.5-47.33 105.5-105.5s-47.33-105.5-105.5-105.5h-.05v-30h.05c74.71 0 135.5 60.78 135.5 135.5z" fill="#3d294f"/><path d="m120.51 177.92h30v30h-30z" fill="#eee6f2"/><path d="m497 192.92c0 66.55-53.94 120.49-120.49 120.5h-.01c-66.55 0-120.5-53.95-120.5-120.5s53.95-120.5 120.5-120.5h.01c66.55.01 120.49 53.95 120.49 120.5z" fill="#fff4f4"/><path d="m497 192.92c0 66.55-53.94 120.49-120.49 120.5v-241c66.55.01 120.49 53.95 120.49 120.5z" fill="#eee6f2"/><path d="m376.51 57.42h-.01c-74.71 0-135.5 60.78-135.5 135.5 0 74.71 60.79 135.5 135.5 135.5h.01c74.71-.01 135.49-60.79 135.49-135.5 0-74.72-60.78-135.49-135.49-135.5zm0 241h-.01c-58.17 0-105.5-47.33-105.5-105.5s47.33-105.5 105.5-105.5h.01c58.17.01 105.49 47.33 105.49 105.5s-47.32 105.49-105.49 105.5z" fill="#443c67"/><g><path d="m443.39 192.92c0 36.94-29.94 66.88-66.88 66.89h-.01c-36.94 0-66.89-29.95-66.89-66.89s29.95-66.89 66.89-66.89h.01c36.94.01 66.88 29.95 66.88 66.89z" fill="#fe534e"/></g><path d="m443.39 192.92c0 36.94-29.94 66.88-66.88 66.89v-133.78c36.94.01 66.88 29.95 66.88 66.89z" fill="#e50057"/><path d="m361.51 177.92h30v30h-30z" fill="#ffe127"/><path d="m376.51 177.92h15v30h-15z" fill="#ffbf2d"/><path d="m156.72 132.67-21.21 21.21-.06-.06-21.16-21.15 21.16-21.15.06-.06z" fill="#eee6f2"/><path d="m156.72 253.17-21.21 21.21-.06-.06-21.16-21.15 21.16-21.15.06-.06z" fill="#eee6f2"/><g fill="#cfcfe8"><path d="m135.45 177.92h15.06v30h-15.06z"/><path d="m135.51 231.96 21.21 21.21-21.21 21.21-.06-.06v-42.3z"/><path d="m135.51 153.88-.06-.06v-42.3l.06-.06 21.21 21.21z"/></g><path d="m68.328 147.794h30.001v30h-30.001z" fill="#eee6f2" transform="matrix(.966 -.259 .259 .966 -39.296 27.115)"/><path d="m172.685 208.044h30.001v30h-30.001z" fill="#cfcfe8" transform="matrix(.966 -.259 .259 .966 -51.334 56.178)"/><path d="m172.685 147.794h30v30.001h-30z" fill="#cfcfe8" transform="matrix(.259 -.966 .966 .259 -18.142 301.944)"/><path d="m68.329 208.044h30v30.001h-30z" fill="#eee6f2" transform="matrix(.259 -.966 .966 .259 -153.683 245.799)"/><path d="m512 192.92c0 74.71-60.78 135.49-135.49 135.5v-30c58.17-.01 105.49-47.33 105.49-105.5s-47.32-105.49-105.49-105.5v-30c74.71.01 135.49 60.78 135.49 135.5z" fill="#3d294f"/><path d="m32 376.904h64v77.677h-64z" fill="#443c67"/><path d="m416 376.904h64v77.677h-64z" fill="#3d294f"/><path d="m0 326.58h512v64h-512z" fill="#fe534e"/><path d="m256.01 326.58h255.99v64h-255.99z" fill="#e50057"/></g></svg>