<svg id="Capa_1" enable-background="new 0 0 512 512" height="512" viewBox="0 0 512 512" width="512" xmlns="http://www.w3.org/2000/svg"><g><path d="m289.091 310.221-16.248-25.22 72.684-46.827 12.936-85.943 29.666 4.465-14.953 99.353z" fill="#3d294f"/><path d="m245.89 358.046-74.454-39.303-20.905-82.324 29.076-7.384 17.624 69.401 62.665 33.08z" fill="#443c67"/><path d="m280.386 354.208h83.867v30h-83.867z" fill="#3d294f" transform="matrix(.841 -.541 .541 .841 -148.556 233.265)"/><path d="m335.062 512h-128l25.14-131.619 10.79-128-.71-64 27.34-22.62 19.32 22.62 7.26 64 11.09 128z" fill="#66518e"/><path d="m335.062 512h-65.44v-346.239l19.32 22.62 7.26 64 11.09 128z" fill="#443c67"/><path d="m360.842 94.251v48.32h-176v-48.32c0-18.7 15.17-33.87 33.88-33.87h108.25c18.7 0 33.87 15.17 33.87 33.87z" fill="#ffd0e5"/><path d="m360.842 94.251v48.32h-91.22v-82.19h57.35c18.7 0 33.87 15.17 33.87 33.87z" fill="#f7abcd"/><path d="m143.062 188.381c-17.673 0-32 14.327-32 32 0 17.673 14.327 32 32 32h99.926l8.726-64-53.552-10.407z" fill="#ffd0e5"/><path d="m431.062 156.381c.082 17.06-14.017 31.847-32 32h-256v-32c0-17.67 14.33-32 32-32h224c17.67 0 32 14.33 32 32z" fill="#f7abcd"/><path d="m431.062 156.381c.082 17.06-14.017 31.847-32 32h-129.44v-64h129.44c17.67 0 32 14.33 32 32z" fill="#e47da8"/><path d="m457.25 472.312-21.213-21.212c19.927-19.927 30.9-46.42 30.9-74.6s-10.974-54.673-30.9-74.6l21.213-21.213c25.593 25.592 39.688 59.619 39.688 95.812s-14.095 70.222-39.688 95.813z" fill="#e50057"/><path d="m414.647 429.71-21.213-21.213c17.643-17.644 17.643-46.351 0-63.994l21.213-21.213c29.339 29.34 29.339 77.08 0 106.42z" fill="#e50057"/><g fill="#fe534e"><path d="m84.875 472.312c-25.593-25.592-39.688-59.619-39.688-95.812s14.095-70.221 39.688-95.812l21.213 21.213c-19.927 19.927-30.9 46.42-30.9 74.6s10.974 54.673 30.9 74.6z"/><path d="m127.478 429.71c-29.339-29.34-29.339-77.08 0-106.42l21.213 21.213c-17.643 17.644-17.643 46.351 0 63.994z"/><path d="m208.593 96.77c0 53.44-43.32 96.76-96.76 96.76-53.45 0-96.77-43.32-96.77-96.76 0-53.45 43.32-96.77 96.77-96.77 53.44 0 96.76 43.32 96.76 96.77z"/></g><path d="m208.593 96.77c0 53.44-43.32 96.76-96.76 96.76v-193.53c53.44 0 96.76 43.32 96.76 96.77z" fill="#e50057"/><path d="m133.042 96.77 24.981 24.98-21.211 21.21-24.979-24.98-24.981 24.98-21.219-21.21 24.979-24.98-24.979-24.98 21.219-21.22 24.981 24.98 24.979-24.98 21.211 21.22z" fill="#fff4f4"/><path d="m133.042 96.77 24.981 24.98-21.211 21.21-24.979-24.98v-42.43l24.979-24.98 21.211 21.22z" fill="#eee6f2"/></g></svg>