<svg id="Capa_1" enable-background="new 0 0 512 512" height="512" viewBox="0 0 512 512" width="512" xmlns="http://www.w3.org/2000/svg"><g><path d="m241.77 222.726c0 46.32-31.79 65.59-76.04 71.57-11.49 1.55-23.82 2.21-36.66 2.21s-25.17-.66-36.66-2.21c-44.25-5.98-76.04-25.25-76.04-71.57 0-62.8 112.7-135.39 112.7-135.39s112.7 72.59 112.7 135.39z" fill="#fff4f4"/><path d="m241.77 222.726c0 46.32-31.79 65.59-76.04 71.57-11.49 1.55-23.82 2.21-36.66 2.21v-209.17s112.7 72.59 112.7 135.39z" fill="#eee6f2"/><path d="m495.627 222.726c0 46.32-31.79 65.59-76.04 71.57-11.49 1.55-23.82 2.21-36.66 2.21s-25.17-.66-36.66-2.21c-44.25-5.98-76.04-25.25-76.04-71.57 0-62.8 112.7-135.39 112.7-135.39s112.7 72.59 112.7 135.39z" fill="#fff4f4"/><path d="m495.627 222.726c0 46.32-31.79 65.59-76.04 71.57-11.49 1.55-23.82 2.21-36.66 2.21v-209.17s112.7 72.59 112.7 135.39z" fill="#eee6f2"/><path d="m419.587 211.096v83.2c-11.49 1.55-23.82 2.21-36.66 2.21s-25.17-.66-36.66-2.21v-83.2z" fill="#443c67"/><path d="m419.587 211.096v83.2c-11.49 1.55-23.82 2.21-36.66 2.21v-85.41z" fill="#3d294f"/><path d="m165.73 211.096v83.2c-11.49 1.55-23.82 2.21-36.66 2.21s-25.17-.66-36.66-2.21v-83.2z" fill="#443c67"/><path d="m165.73 211.096v83.2c-11.49 1.55-23.82 2.21-36.66 2.21v-85.41z" fill="#3d294f"/><path d="m32 344.987h64v77.677h-64z" fill="#443c67"/><path d="m416 346.987h64v77.677h-64z" fill="#3d294f"/><path d="m0 294.663h512v64h-512z" fill="#fe534e"/><path d="m256.01 294.663h255.99v64h-255.99z" fill="#e50057"/></g></svg>