<svg id="Capa_1" enable-background="new 0 0 512 512" height="512" viewBox="0 0 512 512" width="512" xmlns="http://www.w3.org/2000/svg"><g><path d="m45.12 180.185h421.76v30h-421.76z" fill="#443c67"/><path d="m466.88 240.435v30h-178.13l-32.75-6.82-32.75 6.82h-178.13v-30z" fill="#443c67"/><path d="m256 180.185h210.88v30h-210.88z" fill="#3d294f"/><path d="m256 240.435h210.88v30h-178.13l-32.75-6.82z" fill="#3d294f"/><path d="m223.25 126.245h65.5v144.19h-65.5z" fill="#fe534e"/><path d="m256 126.245h32.75v144.19h-32.75z" fill="#e50057"/><path d="m354.252 136.665h65.501v325.33h-65.501z" fill="#e50057"/><path d="m92.246 136.665h65.501v325.33h-65.501z" fill="#fe534e"/><path d="m75.871 446.499h98.252v65.502h-98.252z" fill="#443c67"/><path d="m452.52 77.57-.02 72.29h-393v-72.29z" fill="#443c67"/><path d="m452.52 77.57-.02 72.29h-196.5v-72.29z" fill="#3d294f"/><path d="m337.877 446.499h98.252v65.502h-98.252z" fill="#3d294f"/><g><path d="m512 0-18.38 72.11c-74.43 13.97-156.03 20.95-237.62 20.95-81.6 0-163.19-6.99-237.62-20.96l-18.38-72.1c84.72 18.32 170.36 27.47 256 27.47s171.28-9.15 256-27.47z" fill="#fe534e"/></g><path d="m512 0-18.38 72.11c-74.43 13.97-156.03 20.95-237.62 20.95v-65.59c85.64 0 171.28-9.15 256-27.47z" fill="#e50057"/></g></svg>