<svg id="Capa_1" enable-background="new 0 0 512 512" height="512" viewBox="0 0 512 512" width="512" xmlns="http://www.w3.org/2000/svg"><g><path d="m32 384.326h64v77.677h-64z" fill="#443c67"/><path d="m352.02 256.007c0 51.31-38.24 79.98-96.03 79.98h-191.94c-41.09 0-64.05-38.97-64.05-79.98 0-72.91 78.8-208.01 176.01-208.01s176.01 135.1 176.01 208.01z" fill="#f7abcd"/><path d="m352.02 256.007c0 51.31-38.24 79.98-96.03 79.98h-79.98v-287.99c97.21 0 176.01 135.1 176.01 208.01z" fill="#e47da8"/><path d="m512 256.007c0 51.31-38.24 79.98-96.03 79.98h-191.94c-41.09 0-64.05-38.97-64.05-79.98 0-72.91 78.8-208.01 176.01-208.01s176.01 135.1 176.01 208.01z" fill="#fff4f4"/><path d="m512 256.007c0 51.31-38.24 79.98-96.03 79.98h-79.98v-287.99c97.21 0 176.01 135.1 176.01 208.01z" fill="#eee6f2"/><path d="m416 386.326h64v77.677h-64z" fill="#3d294f"/><path d="m0 334.002h512v64h-512z" fill="#fe534e"/><path d="m256.01 334.002h255.99v64h-255.99z" fill="#e50057"/><path d="m400 256.387v109.62c0 8.84-3.58 16.84-9.37 22.63s-13.79 9.37-22.63 9.37c-17.67 0-31.99-14.33-31.99-32v-32h-32c-17.68 0-32-14.33-32-32v-46.62l63.98.5z" fill="#f7abcd"/><path d="m400 256.387v109.62c0 8.84-3.58 16.84-9.37 22.63s-13.79 9.37-22.63 9.37c-17.67 0-31.99-14.33-31.99-32v-32h-.02v-78.12z" fill="#e47da8"/><path d="m400 271.247c-7.87 0-36-.24-64.01-.49-28.95-.25-57.78-.51-63.98-.51-40.81 0-36.57-34.35-36.57-34.35 0-36.43 43.84-115.92 100.55-115.94h.02c56.71 0 100.56 79.51 100.56 115.94 0 0 4.25 35.35-36.57 35.35z" fill="#ffd0e5"/><path d="m400 271.247c-7.87 0-36-.24-64.01-.49v-150.8h.02c56.71 0 100.56 79.51 100.56 115.94 0 0 4.25 35.35-36.57 35.35z" fill="#f7abcd"/></g></svg>