<svg id="Capa_1" enable-background="new 0 0 512 512" height="512" viewBox="0 0 512 512" width="512" xmlns="http://www.w3.org/2000/svg"><g><path d="m195.47 47.507-29.997-2.443-.003-45.064h30z" fill="#443c67"/><path d="m346.472 45.064-30 4.832v-49.896h30z" fill="#3d294f"/><path d="m376.63 105.38h-241.31l30.15-60.32h181z" fill="#00dc7d"/><path d="m376.63 105.38h-120.63v-60.32h90.47z" fill="#32afa8"/><path d="m376.63 105.38v74.29h-241.26l-.05-74.29z" fill="#fe534e"/><path d="m256 105.38h120.63v74.29h-120.63z" fill="#e50057"/><path d="m421.59 75.26c0 24.88-20.24 45.12-45.13 45.12h-241.05c-24.88 0-45.12-20.24-45.12-45.12h30c0 8.34 6.78 15.12 15.12 15.12h241.05c8.34 0 15.13-6.78 15.13-15.12z" fill="#443c67"/><path d="m421.59 75.26c0 24.88-20.24 45.12-45.13 45.12h-120.46v-30h120.46c8.34 0 15.13-6.78 15.13-15.12z" fill="#3d294f"/><path d="m180.75 135.995h30v43.675h-30z" fill="#443c67"/><path d="m241 136h30v43.67h-30z" fill="#443c67"/><path d="m256 136h15v43.67h-15z" fill="#3d294f"/><path d="m301.251 135.995h30v43.675h-30z" fill="#3d294f"/><path d="m105.21 226.01h301.58v107.99h-301.58z" fill="#fe534e"/><path d="m256 226.01h150.79v107.99h-150.79z" fill="#e50057"/><path d="m406.79 226.01h-301.58l30.16-60.31h241.26z" fill="#00dc7d"/><path d="m406.79 226.01h-150.79v-60.31h120.63z" fill="#32afa8"/><path d="m150.571 270.233h30v63.769h-30z" fill="#443c67"/><path d="m451.75 195.9c0 24.88-20.24 45.12-45.13 45.12h-301.24c-24.89 0-45.13-20.24-45.13-45.12h30c0 8.34 6.79 15.12 15.13 15.12h301.24c8.34 0 15.13-6.78 15.13-15.12z" fill="#443c67"/><path d="m451.75 195.9c0 24.88-20.24 45.12-45.13 45.12h-150.62v-30h150.62c8.34 0 15.13-6.78 15.13-15.12z" fill="#3d294f"/><path d="m210.875 270.233h30v63.769h-30z" fill="#443c67"/><path d="m271.179 270.233h30v63.769h-30z" fill="#3d294f"/><path d="m331.481 270.233h30v63.769h-30z" fill="#3d294f"/><path d="m63.74 327.579-30-11.096v-46.25h30z" fill="#443c67"/><path d="m478.26 316.483-30 17.517v-63.767h30z" fill="#3d294f"/><path d="m478.26 316.48v60.32l-222.26 21.2-.06.01-222.2-21.21v-60.32z" fill="#00dc7d"/><path d="m478.26 316.48v60.32l-222.26 21.2v-81.52z" fill="#32afa8"/><path d="m512 512h-512l33.74-135.2h444.52z" fill="#443c67"/><path d="m512 512h-256v-135.2h222.26z" fill="#3d294f"/></g></svg>