<svg id="Capa_1" enable-background="new 0 0 512 512" height="512" viewBox="0 0 512 512" width="512" xmlns="http://www.w3.org/2000/svg"><g><path d="m512 128-256 16.84-256-16.84c97.35-16.42 182.9-55.19 256-128 70.63 70.15 154.56 111.01 256 128z" fill="#53c7ff"/><path d="m512 128-256 16.84v-144.84c70.63 70.15 154.56 111.01 256 128z" fill="#48a4ff"/><path d="m0 230.75v281.25h64v-303.626z" fill="#443c67"/><path d="m512 230.75v281.25h-64v-303.626z" fill="#3d294f"/><path d="m462.95 183.94-14.95 46.81c-60.31-30.24-126.17-45.31-192-45.29-65.89.02-131.76 15.15-192 45.29l-19.36-51.38 19.36-51.37h384z" fill="#2688e9"/><path d="m462.95 183.94-14.95 46.81c-60.31-30.24-126.17-45.31-192-45.29v-57.46h192z" fill="#263ecf"/><path d="m0 128v102.75h64l.001-.001v-102.749z" fill="#48a4ff"/><path d="m448.001 128h63.999v102.75h-63.999z" fill="#2688e9"/></g></svg>