<svg id="Capa_1" enable-background="new 0 0 512 512" height="512" viewBox="0 0 512 512" width="512" xmlns="http://www.w3.org/2000/svg"><g><path d="m241 0h30v45.12h-30z" fill="#443c67"/><path d="m256 0h15v45.12h-15z" fill="#3d294f"/><g><path d="m162.92 93.8h186.12v362.16h-186.12z" fill="#ffe127"/></g><path d="m256 93.8h93.04v362.16h-93.04z" fill="#ffbf2d"/><g fill="#443c67"><path d="m210.875 125.696h30v45.195h-30z"/><path d="m271.125 125.696h30v45.195h-30z"/><path d="m210.875 249.737h30v39.85h-30z"/><path d="m271.125 249.737h30v39.85h-30z"/></g><path d="m380.05 217.84h-248.14l31.01-62.02h186.12z" fill="#fe534e"/><path d="m349.04 155.82 31.01 62.02h-124.05v-62.02z" fill="#e50057"/><path d="m380.05 93.8h-248.14l31.01-62.02h186.12z" fill="#fe534e"/><path d="m380.05 93.8h-124.05v-62.02h93.04z" fill="#e50057"/><path d="m380.05 341.88h-248.14l31.01-62.02h186.12z" fill="#fe534e"/><path d="m421.62 63.68c0 24.88-20.24 45.12-45.12 45.12h-241.05c-24.89 0-45.13-20.24-45.13-45.12h30c0 8.34 6.79 15.12 15.13 15.12h241.05c8.34 0 15.12-6.78 15.12-15.12z" fill="#443c67"/><path d="m421.62 187.72c0 24.88-20.24 45.13-45.12 45.13h-241.05c-24.89 0-45.13-20.25-45.13-45.13h30c0 8.34 6.79 15.13 15.13 15.13h241.05c8.34 0 15.12-6.79 15.12-15.13z" fill="#443c67"/><path d="m225 341.88h62.02v114.08h-62.02z" fill="#fe534e"/><path d="m256 341.88h31.02v114.08h-31.02z" fill="#e50057"/><path d="m349.04 279.86 31.01 62.02h-124.04l-.01-62.02z" fill="#e50057"/><path d="m421.62 311.76c0 24.88-20.24 45.12-45.12 45.12h-241.05c-24.89 0-45.13-20.24-45.13-45.12h30c0 8.34 6.79 15.12 15.13 15.12h241.05c8.34 0 15.12-6.78 15.12-15.12z" fill="#443c67"/><path d="m391.62 311.76h30c0 24.88-20.24 45.12-45.12 45.12h-120.5v-30h120.5c8.34 0 15.12-6.78 15.12-15.12z" fill="#3d294f"/><path d="m395.29 496.94h-279.1l15.24-62.02h248.62z" fill="#443c67"/><path d="m380.05 434.92 15.24 62.02h-139.29v-62.02z" fill="#3d294f"/><path d="m75.25 482h361.5v30h-361.5z" fill="#66518e"/><path d="m256 482h180.75v30h-180.75z" fill="#443c67"/><path d="m391.62 187.72h30c0 24.88-20.24 45.13-45.12 45.13h-120.5v-30h120.5c8.34 0 15.12-6.79 15.12-15.13z" fill="#3d294f"/><path d="m376.5 108.8h-120.5v-30h120.5c8.34 0 15.12-6.78 15.12-15.12h30c0 24.88-20.24 45.12-45.12 45.12z" fill="#3d294f"/></g></svg>