<svg id="Capa_1" enable-background="new 0 0 512 512" height="512" viewBox="0 0 512 512" width="512" xmlns="http://www.w3.org/2000/svg"><g><path d="m256 184.45c0 70.69-57.31 128-128 128s-128-57.31-128-128c0-11.05 1.4-21.77 4.03-32l123.97-24.57 123.97 24.57c2.63 10.23 4.03 20.95 4.03 32z" fill="#ffe127"/><path d="m256 184.45c0 70.69-57.31 128-128 128v-184.57l123.97 24.57c2.63 10.23 4.03 20.95 4.03 32z" fill="#ffbf2d"/><path d="m512 184.45c0 70.69-57.31 128-128 128s-128-57.31-128-128c0-11.05 1.4-21.77 4.03-32l123.97-24.57 123.97 24.57c2.63 10.23 4.03 20.95 4.03 32z" fill="#ffe127"/><path d="m512 184.45c0 70.69-57.31 128-128 128v-184.57l123.97 24.57c2.63 10.23 4.03 20.95 4.03 32z" fill="#ffbf2d"/><path d="m507.97 152.45h-27.97c-17.06-.082-31.847 14.017-32 32 .082 17.06-14.017 31.847-32 32-17.06.082-31.847-14.017-32-32h-32c-17.59-.03-32.12-14.83-32-32h-59.97c14.21-55.21 64.33-96 123.97-96s109.76 40.79 123.97 96z" fill="#66518e"/><path d="m507.97 152.45h-27.97c-17.06-.082-31.847 14.017-32 32 .082 17.06-14.017 31.847-32 32-17.06.082-31.847-14.017-32-32v-128c59.64 0 109.76 40.79 123.97 96z" fill="#443c67"/><path d="m344.438 106.688h30v30h-30z" fill="#443c67"/><path d="m393.563 127.882h30v30h-30z" fill="#3d294f"/><path d="m251.97 152.45h-27.97c-17.06-.082-31.847 14.017-32 32 .082 17.06-14.017 31.847-32 32-17.06.082-31.847-14.017-32-32h-32c-17.59-.03-32.12-14.83-32-32h-59.97c14.21-55.21 64.33-96 123.97-96s109.76 40.79 123.97 96z" fill="#66518e"/><path d="m251.97 152.45h-27.97c-17.06-.082-31.847 14.017-32 32 .082 17.06-14.017 31.847-32 32-17.06.082-31.847-14.017-32-32v-128c59.64 0 109.76 40.79 123.97 96z" fill="#443c67"/><path d="m88.438 106.688h30v30h-30z" fill="#443c67"/><path d="m137.563 127.882h30v30h-30z" fill="#3d294f"/><path d="m512 300.95c0 57.95-64 90.6-64 90.6l-187.97 18.3-4.02-.38-192.01-17.92s-64-32.65-64-90.6z" fill="#fe534e"/><path d="m512 300.95c0 57.95-64 90.6-64 90.6l-187.97 18.3-4.02-.38v-108.52z" fill="#e50057"/><path d="m64 391.55h384v64h-384z" fill="#443c67"/><path d="m256.01 391.55h191.99v64h-191.99z" fill="#3d294f"/></g></svg>