<svg id="Capa_1" enable-background="new 0 0 512 512" height="512" viewBox="0 0 512 512" width="512" xmlns="http://www.w3.org/2000/svg"><g><g><path d="m161.77 103.34h188.55v75.04h-188.55z" fill="#fe534e"/></g><path d="m256 103.34h94.32v75.04h-94.32z" fill="#e50057"/><path d="m210.862 135.5h30v42.884h-30z" fill="#443c67"/><path d="m273.837 135.5h30v42.884h-30z" fill="#3d294f"/><path d="m381.72 228.94h-251.41l31.4-62.8h188.61z" fill="#66518e"/><g><path d="m381.72 228.94v77.76h-251.35l-.06-77.76z" fill="#fe534e"/><path d="m256 228.94h125.72v77.76h-125.72z" fill="#e50057"/></g><path d="m67.59 354.55h376.82v104.75h-376.82z" fill="#fe534e"/><path d="m256 354.55h188.41v104.75h-188.41z" fill="#e50057"/><path d="m350.32 103.34h-188.61c35.29-20.5 69.29-46.51 94.29-79.38 24.62 32.57 59.02 58.8 94.32 79.38z" fill="#66518e"/><g fill="#443c67"><path d="m350.32 103.34h-94.32v-79.38c24.62 32.57 59.02 58.8 94.32 79.38z"/><path d="m381.72 228.94h-125.72v-62.8h94.32z"/><path d="m180.75 256.002h30v50.698h-30z"/><path d="m240.97 256h30v50.7h-30z"/></g><path d="m256 256h14.97v50.7h-14.97z" fill="#3d294f"/><path d="m301.25 256.002h30v50.698h-30z" fill="#3d294f"/><path d="m271 0v41.78l-15 .02-15 .01v-41.81z" fill="#443c67"/><path d="m120.447 390.5h30v68.8h-30z" fill="#443c67"/><path d="m180.75 390.5h30v68.8h-30z" fill="#443c67"/><path d="m241.03 390.5h30v68.8h-30z" fill="#443c67"/><path d="m256 390.5h15.03v68.8h-15.03z" fill="#3d294f"/><path d="m301.317 390.5h30v68.8h-30z" fill="#3d294f"/><path d="m361.607 390.5h30v68.8h-30z" fill="#3d294f"/><path d="m421.73 198.82c0 24.88-20.24 45.12-45.12 45.12h-241.19c-24.88 0-45.13-20.24-45.13-45.12h30c0 8.34 6.79 15.12 15.13 15.12h241.19c8.34 0 15.12-6.78 15.12-15.12z" fill="#443c67"/><path d="m0 449.2h512v62.8h-512z" fill="#66518e"/><path d="m256 449.2h256v62.8h-256z" fill="#443c67"/><path d="m444.41 354.55h-376.82l62.78-62.8h251.35z" fill="#66518e"/><path d="m444.41 354.55h-188.41v-62.8h125.72z" fill="#443c67"/><path d="m481.88 324.43c0 24.88-20.25 45.12-45.13 45.12h-361.5c-24.88 0-45.13-20.24-45.13-45.12h30c0 8.34 6.79 15.12 15.13 15.12h361.5c8.34 0 15.13-6.78 15.13-15.12z" fill="#443c67"/><path d="m391.61 73.21c0 24.88-20.25 45.13-45.13 45.13h-180.93c-24.89 0-45.13-20.25-45.13-45.13h30c0 8.34 6.79 15.13 15.13 15.13h180.93c8.34 0 15.13-6.79 15.13-15.13z" fill="#443c67"/><path d="m271 41.78-15 .02v-41.8h15z" fill="#3d294f"/><path d="m346.48 118.34h-90.48v-30h90.48c8.34 0 15.13-6.79 15.13-15.13h30c0 24.88-20.25 45.13-45.13 45.13z" fill="#3d294f"/><path d="m376.61 243.94h-120.61v-30h120.61c8.34 0 15.12-6.78 15.12-15.12h30c0 24.88-20.24 45.12-45.12 45.12z" fill="#3d294f"/><path d="m481.88 324.43c0 24.88-20.25 45.12-45.13 45.12h-180.75v-30h180.75c8.34 0 15.13-6.78 15.13-15.12z" fill="#3d294f"/></g></svg>