<svg id="Capa_1" enable-background="new 0 0 512 512" height="512" viewBox="0 0 512 512" width="512" xmlns="http://www.w3.org/2000/svg"><g><path d="m448 128-96 16.89-96-16.89 32-64h128z" fill="#eee6f2"/><path d="m448 128-96 16.89v-80.89h64z" fill="#cfcfe8"/><path d="m60.25 64.001h95.943v80.888h-95.943z" fill="#443c67"/><path d="m0 128h512v320h-512z" fill="#ffd0e5"/><path d="m352 128h160v320h-160z" fill="#f7abcd"/><circle cx="352" cy="288" fill="#eee6f2" r="96"/><path d="m448 288c0 53.02-42.98 96-96 96v-192c53.02 0 96 42.98 96 96z" fill="#cfcfe8"/><path d="m352 182.63c-58.1 0-105.37 47.27-105.37 105.37s47.27 105.38 105.37 105.38 105.37-47.28 105.37-105.38-47.27-105.37-105.37-105.37zm0 180.75c-41.56 0-75.37-33.82-75.37-75.38s33.81-75.37 75.37-75.37 75.37 33.81 75.37 75.37-33.81 75.38-75.37 75.38z" fill="#fff4f4"/><path d="m457.37 288c0 58.1-47.27 105.38-105.37 105.38v-30c41.56 0 75.37-33.82 75.37-75.38s-33.81-75.37-75.37-75.37v-30c58.1 0 105.37 47.27 105.37 105.37z" fill="#eee6f2"/><circle cx="352" cy="288" fill="#53c7ff" r="32"/><path d="m384 288c0 17.67-14.33 32-32 32v-64c17.67 0 32 14.33 32 32z" fill="#48a4ff"/><path d="m60.25 192.002h96v64h-96z" fill="#53c7ff"/><path d="m60.25 361.5h30v30h-30z" fill="#fe534e"/></g></svg>