<svg id="Capa_1" enable-background="new 0 0 512 512" height="512" viewBox="0 0 512 512" width="512" xmlns="http://www.w3.org/2000/svg"><g><path d="m480 256-32 256h-384l-32-256 224-32z" fill="#ffbf2d"/><path d="m480 256-32 256h-192v-288z" fill="#ffa032"/><path d="m512 192v64h-512v-64h224v-192h64v192z" fill="#443c67"/><path d="m512 192v64h-256v-256h32v192z" fill="#3d294f"/><circle cx="256" cy="224" fill="#ffe127" r="45.25"/><path d="m301.25 224c0 24.99-20.26 45.25-45.25 45.25v-90.5c24.99 0 45.25 20.26 45.25 45.25z" fill="#ffbf2d"/><path d="m150.625 323.75h30v120.5h-30z" fill="#ffe127"/><path d="m210.875 323.75h30v120.5h-30z" fill="#ffe127"/><g fill="#ffbf2d"><path d="m271.125 323.75h30v120.5h-30z"/><path d="m331.375 323.75h30v120.5h-30z"/></g></g></svg>