<svg id="Capa_1" enable-background="new 0 0 512.003 512.003" height="512" viewBox="0 0 512.003 512.003" width="512" xmlns="http://www.w3.org/2000/svg"><g><path d="m104.149 453.212-58.8 58.791-45.25-45.25 58.79-58.801 22.63 22.631z" fill="#443c67"/><path d="m104.149 453.212-58.8 58.791-22.62-22.621 58.79-58.799z" fill="#3d294f"/><path d="m474.419 218.513c-49.96 49.96-130.93 49.99-180.92.09-.03-.02-.07-.06-.1-.09-49.99-49.99-49.99-131.03 0-181.02 49.98-49.99 131.03-49.99 181.02 0 .03.03.07.07.09.1 49.89 49.999 49.86 130.96-.09 180.92z" fill="#fff4f4"/><path d="m474.419 218.513c-49.96 49.96-130.93 49.99-180.92.09l181.01-181.01c49.89 49.999 49.86 130.96-.09 180.92z" fill="#eee6f2"/><path d="m391.929 255.742-278.79 233.541-45.16-45.16-45.35-45.35 233.54-278.791z" fill="#53c7ff"/><path d="m391.929 255.742-278.79 233.541-45.16-45.16 256.17-256.161z" fill="#48a4ff"/><path d="m501.019 224.092-21.21 21.221-213.02-213.02 21.22-21.21z" fill="#443c67"/><path d="m501.019 224.092-21.21 21.221-106.51-106.51 21.22-21.211z" fill="#3d294f"/><path d="m289.599 243.722-42.52 42.51-10.6-10.6-10.61-10.609 42.51-42.52z" fill="#443c67"/><path d="m289.599 243.722-42.52 42.51-10.6-10.6 42.51-42.52z" fill="#3d294f"/><path d="m367.345 416.593c-.14.45-.16.49-.3.93 5.18 4.57 30.48 26.88 30.48 26.88 8.76 7.73 13.07 18.35 13.07 28.95 0 11.82-5.37 23.6-15.92 31.26-20 14.53-48.32 6.79-58.14-15.91l-16.14-37.29h-.98l-16.14 37.29c-6.42 14.85-20.76 23.3-35.51 23.3-7.8 0-15.71-2.36-22.63-7.39-20.01-14.53-21.39-43.86-2.85-60.21 0 0 25.3-22.31 30.48-26.88-.14-.44-.16-.48-.3-.93l-40.45-3.82c-20.43-1.93-35.01-19.17-35.01-38.42 0-3.94.61-7.97 1.91-11.97 7.64-23.52 35.11-33.89 56.39-21.31l34.98 20.68c.38-.27.41-.3.79-.57l-8.86-39.66c-.64-2.86-.94-5.71-.94-8.5 0-20.74 16.83-38.54 38.63-38.54 24.73 0 43.08 22.91 37.69 47.04l-8.86 39.66c.38.27.41.3.79.57l34.98-20.68c6.22-3.68 12.97-5.39 19.6-5.39 16.05 0 31.38 10.06 36.79 26.7 7.64 23.52-8.48 48.06-33.1 50.39z" fill="#fe534e"/><path d="m367.345 416.593c-.14.45-.16.49-.3.93 5.18 4.57 30.48 26.88 30.48 26.88 8.76 7.73 13.07 18.35 13.07 28.95 0 11.82-5.37 23.6-15.92 31.26-20 14.53-48.32 6.79-58.14-15.91l-16.14-37.29h-.49v-176.93c24.73 0 43.08 22.91 37.69 47.04l-8.86 39.66c.38.27.41.3.79.57l34.98-20.68c6.22-3.68 12.97-5.39 19.6-5.39 16.05 0 31.38 10.06 36.79 26.7 7.64 23.52-8.48 48.06-33.1 50.39z" fill="#e50057"/><path d="m304.905 386.693h30v30h-30z" fill="#ffd0e5"/><path d="m319.905 386.693h15v30h-15z" fill="#f7abcd"/></g></svg>