<svg id="Capa_1" enable-background="new 0 0 512 512" height="512" viewBox="0 0 512 512" width="512" xmlns="http://www.w3.org/2000/svg"><g><path d="m188.627 447.588h64.412v64.412h-64.412z" fill="#443c67"/><path d="m381.862 447.588h64.412v64.412h-64.412z" fill="#3d294f"/><path d="m392.7 15v145.57h-30v-70.32h-90.5v70.32h-30v-145.57h30v45.25h90.5v-45.25z" fill="#eee6f2"/><path d="m392.7 15v145.57h-30v-70.32h-45.25v-30h45.25v-45.25z" fill="#cfcfe8"/><path d="m429.05 298.72-14.98 164.87h-193.21l-14.65-164.87 14.65-175.19h193.21z" fill="#f7abcd"/><path d="m429.05 298.72-14.98 164.87h-96.62v-340.06h96.62z" fill="#e47da8"/><path d="m220.832 123.53c-35.573 0-64.411 28.838-64.411 64.411v275.648h64.44v-340.059z" fill="#ffd0e5"/><path d="m478.479 187.94c0-35.573-28.838-64.411-64.411-64.411v340.059h64.411z" fill="#f7abcd"/><path d="m227.07 0h180.75v30h-180.75z" fill="#443c67"/><path d="m317.45 0h90.37v30h-90.37z" fill="#3d294f"/><path d="m203.861 188.52c-.14.45-.16.49-.3.93 5.18 4.57 30.48 26.88 30.48 26.88 8.76 7.73 13.07 18.35 13.07 28.95 0 11.82-5.37 23.6-15.92 31.26-20 14.53-48.32 6.79-58.14-15.91l-16.14-37.29h-.98l-16.14 37.29c-6.42 14.85-20.76 23.3-35.51 23.3-7.8 0-15.71-2.36-22.63-7.39-20.01-14.53-21.39-43.86-2.85-60.21 0 0 25.3-22.31 30.48-26.88-.14-.44-.16-.48-.3-.93l-40.45-3.82c-20.43-1.93-35.01-19.17-35.01-38.42 0-3.94.61-7.97 1.91-11.97 7.64-23.52 35.11-33.89 56.39-21.31l34.98 20.68c.38-.27.41-.3.79-.57l-8.86-39.66c-.64-2.86-.94-5.71-.94-8.5 0-20.74 16.83-38.54 38.63-38.54 24.73 0 43.08 22.91 37.69 47.04l-8.86 39.66c.38.27.41.3.79.57l34.98-20.68c6.22-3.68 12.97-5.39 19.6-5.39 16.05 0 31.38 10.06 36.79 26.7 7.64 23.52-8.48 48.06-33.1 50.39z" fill="#fe534e"/><path d="m203.861 188.52c-.14.45-.16.49-.3.93 5.18 4.57 30.48 26.88 30.48 26.88 8.76 7.73 13.07 18.35 13.07 28.95 0 11.82-5.37 23.6-15.92 31.26-20 14.53-48.32 6.79-58.14-15.91l-16.14-37.29h-.49v-176.93c24.73 0 43.08 22.91 37.69 47.04l-8.86 39.66c.38.27.41.3.79.57l34.98-20.68c6.22-3.68 12.97-5.39 19.6-5.39 16.05 0 31.38 10.06 36.79 26.7 7.64 23.52-8.48 48.06-33.1 50.39z" fill="#e50057"/><path d="m141.421 158.62h30v30h-30z" fill="#ffd0e5"/><path d="m156.421 158.62h15v30h-15z" fill="#f7abcd"/></g></svg>