<svg id="Capa_1" enable-background="new 0 0 512 512" height="512" viewBox="0 0 512 512" width="512" xmlns="http://www.w3.org/2000/svg"><g><path d="m70.25 65.408h30v30h-30z" fill="#ffe127" transform="matrix(.707 -.707 .707 .707 -31.888 83.832)"/><path d="m411.75 65.408h30v30h-30z" fill="#ffbf2d" transform="matrix(.707 -.707 .707 .707 68.135 325.309)"/><path d="m115.747 196.005c-16.004-27.634-43.428-45.729-73.358-48.406l2.672-29.881c39.632 3.545 75.762 27.19 96.647 63.252z" fill="#bde953"/><path d="m116.512 256.523c-17.941-15.736-43.067-21.935-67.216-16.581l-6.492-29.289c33.439-7.415 68.392 1.302 93.489 23.315z" fill="#53c7ff"/><path d="m396.253 196.005-25.961-15.035c20.886-36.062 57.016-59.707 96.647-63.252l2.672 29.881c-29.93 2.676-57.354 20.772-73.358 48.406z" fill="#00dc7d"/><path d="m395.488 256.523-19.781-22.555c25.098-22.012 60.048-30.73 93.489-23.315l-6.492 29.289c-24.144-5.351-49.274.844-67.216 16.581z" fill="#48a4ff"/><path d="m336.72 390.58-73.5 121.42h-14.41l-48.09-79.65 55.28-16.98z" fill="#fe534e"/><path d="m336.72 390.58-73.5 121.42h-7.22v-96.63z" fill="#e50057"/><path d="m396.1 292.47-59.38 98.11c-9.81 5.7-41.66 23.15-80.72 33.61-17.43 4.67-36.3 7.94-55.28 8.16l-37.65-62.38 92.93-30.91z" fill="#53c7ff"/><path d="m396.1 292.47-59.38 98.11c-9.81 5.7-41.66 23.15-80.72 33.61v-85.13z" fill="#48a4ff"/><path d="m396.1 292.47s-35.44 49.06-140.1 69.11c-26.39 5.06-57.19 8.27-92.93 8.39l-47.14-78.06 140.07.28z" fill="#ffd0e5"/><path d="m396.1 292.47s-35.44 49.06-140.1 69.11v-69.39z" fill="#f7abcd"/><path d="m303.439 142.11c-.14.45-.16.49-.3.93 5.18 4.57 30.48 26.88 30.48 26.88 8.76 7.73 13.07 18.35 13.07 28.95 0 11.82-5.37 23.6-15.92 31.26-20 14.53-48.32 6.79-58.14-15.91l-16.14-37.29h-.98l-16.14 37.29c-6.42 14.85-20.76 23.3-35.51 23.3-7.8 0-15.71-2.36-22.63-7.39-20.01-14.53-21.39-43.86-2.85-60.21 0 0 25.3-22.31 30.48-26.88-.14-.44-.16-.48-.3-.93l-40.45-3.82c-20.43-1.93-35.01-19.17-35.01-38.42 0-3.94.61-7.97 1.91-11.97 7.64-23.52 35.11-33.89 56.39-21.31l34.98 20.68c.38-.27.41-.3.79-.57l-8.86-39.66c-.64-2.86-.94-5.71-.94-8.5 0-20.74 16.83-38.54 38.63-38.54 24.73 0 43.08 22.91 37.69 47.04l-8.86 39.66c.38.27.41.3.79.57l34.98-20.68c6.22-3.68 12.97-5.39 19.6-5.39 16.05 0 31.38 10.06 36.79 26.7 7.64 23.52-8.48 48.06-33.1 50.39z" fill="#fe534e"/><path d="m303.439 142.11c-.14.45-.16.49-.3.93 5.18 4.57 30.48 26.88 30.48 26.88 8.76 7.73 13.07 18.35 13.07 28.95 0 11.82-5.37 23.6-15.92 31.26-20 14.53-48.32 6.79-58.14-15.91l-16.14-37.29h-.49v-176.93c24.73 0 43.08 22.91 37.69 47.04l-8.86 39.66c.38.27.41.3.79.57l34.98-20.68c6.22-3.68 12.97-5.39 19.6-5.39 16.05 0 31.38 10.06 36.79 26.7 7.64 23.52-8.48 48.06-33.1 50.39z" fill="#e50057"/><path d="m240.999 112.21h30v30h-30z" fill="#ffd0e5"/><path d="m255.999 112.21h15v30h-15z" fill="#f7abcd"/></g></svg>