<svg id="Capa_1" enable-background="new 0 0 512.002 512.002" height="512" viewBox="0 0 512.002 512.002" width="512" xmlns="http://www.w3.org/2000/svg"><g><path d="m512.002 320.001v50.74c0 32.41-7.2 55.78-20.71 77.26l-75.29 12.18-75.28-12.18c-13.52-21.48-20.72-44.85-20.72-77.26v-50.74z" fill="#fff4f4"/><path d="m512.002 320.001v50.74c0 32.41-7.2 55.78-20.71 77.26l-75.29 12.18v-140.18z" fill="#eee6f2"/><path d="m340.722 448.001h150.57v64h-150.57z" fill="#eee6f2"/><path d="m416.002 448.001h75.29v64h-75.29z" fill="#cfcfe8"/><path d="m228.702 512.001h-201.43c-41.63-142.95-35.09-237.94 16.13-311.08 31.3-39.72 42.5-88.05 20.58-136.92l64-18.87 64 18.87c-20.11 45.78-13.42 94.03 20.59 136.92 51.58 73.42 57.44 168.46 16.13 311.08z" fill="#bde953"/><path d="m228.702 512.001h-100.72v-466.87l64 18.87c-20.11 45.78-13.42 94.03 20.59 136.92 51.58 73.42 57.44 168.46 16.13 311.08z" fill="#00dc7d"/><circle cx="127.982" cy="368.021" fill="#fe534e" r="48"/><path d="m175.982 368.021c0 26.51-21.49 48-48 48v-96c26.51 0 48 21.49 48 48z" fill="#e50057"/><path d="m63.982.001h128v64h-128z" fill="#443c67"/><path d="m127.982.001h64v64h-64z" fill="#3d294f"/></g></svg>