<svg id="Capa_1" enable-background="new 0 0 512 512" height="512" viewBox="0 0 512 512" width="512" xmlns="http://www.w3.org/2000/svg"><g><path d="m509.57 256-95.57 120.61-16.6 2.93-13.4 34.93v97.53h-177l-15.28-15-14.72 15h-49v-97.53l-13.4-34.5-16.6-3.36-95.57-120.61 95.09-224 75.73-32 82.75 60.33 82.75-60.33 75.73 32z" fill="#fe534e"/><path d="m509.57 256-95.57 120.61-16.6 2.93-13.4 34.93v97.53h-128v-451.67l82.75-60.33 75.73 32z" fill="#e50057"/><path d="m308.57 15-52.57 70.33-53.86-70.33 8.61-15h90.5z" fill="#e50057"/><path d="m308.57 15-52.57 70.33v-85.33h45.25z" fill="#c3046b"/><path d="m338.75 0-82.75 110.34-49 65.33v336.33h-30v-346.33l60.25-80.34-64-85.33h37.5l45.25 60.33 45.25-60.33z" fill="#ffbf2d"/><path d="m338.75 0-82.75 110.34v-50.01l45.25-60.33z" fill="#ffa032"/><path d="m114.6 221.72h282.8v128h-282.8z" fill="#443c67"/><path d="m256 221.72h141.4v128h-141.4z" fill="#3d294f"/><path d="m114.6 270.72h282.8v30h-282.8z" fill="#ffbf2d"/><path d="m256 270.72h141.4v30h-141.4z" fill="#ffa032"/><path d="m113.13 128 14.87 93.72v192.75l-30-37.86v-152.53l-13.16-82.93z" fill="#e50057"/><path d="m426.92 142.65-12.92 81.43v152.53l-30 37.86v-192.75l14.87-93.72z" fill="#c3046b"/></g></svg>