<svg id="Capa_1" enable-background="new 0 0 512 512" height="512" viewBox="0 0 512 512" width="512" xmlns="http://www.w3.org/2000/svg"><g><path d="m75.25 135.5h361.5v233.5h-361.5z" fill="#443c67"/><path d="m256 135.5h180.75v233.5h-180.75z" fill="#3d294f"/><path d="m451.75 418-11.87 15 11.87 15v49h-391.5v-49l15-15-15-15v-49h391.5z" fill="#fe534e"/><path d="m451.75 418-11.87 15 11.87 15v49h-195.75v-128h195.75z" fill="#e50057"/><path d="m256 305h128v64h-128z" fill="#e50057"/><path d="m128 305h64v64h-64z" fill="#fe534e"/><g><path d="m60.25 167.5h30v201.5h-30z" fill="#66518e"/></g><g><path d="m421.75 167.5h30v201.5h-30z" fill="#443c67"/></g><path d="m30.12 354h451.76v30h-451.76z" fill="#66518e"/><path d="m285.876 0-1.626 64 16.497 64h83.253l-7.758-64-28.491-64z" fill="#c3046b"/><path d="m60.25 418h391.5v30h-391.5z" fill="#e50057"/><path d="m164.249 0-29.744 64-6.505 64h83.253l18.602-64-3.73-64z" fill="#e50057"/><path d="m409.627 0h-61.876l36.249 128h96z" fill="#e50057"/><path d="m102.373 0-70.373 128h96l36.249-128z" fill="#fe534e"/><path d="m300.75 128h-89.5l14.87-128h59.76z" fill="#fe534e"/><path d="m300.75 128h-44.75v-128h29.88z" fill="#e50057"/><path d="m0 482h512v30h-512z" fill="#66518e"/><path d="m36.194 135.5h78.112v78.112h-78.112z" fill="#ffbf2d"/><path d="m156.694 135.5h78.112v78.112h-78.112z" fill="#ffbf2d"/><path d="m277.194 135.5h78.112v78.112h-78.112z" fill="#ffa032"/><path d="m397.694 135.5h78.112v78.112h-78.112z" fill="#ffa032"/><path d="m512 105.38c0 24.88-20.24 45.12-45.12 45.12h-421.76c-24.88 0-45.12-20.24-45.12-45.12h30c0 8.33 6.79 15.12 15.12 15.12h421.76c8.33 0 15.12-6.79 15.12-15.12z" fill="#66518e"/><path d="m256 418h195.75v30h-195.75z" fill="#c3046b"/><g fill="#443c67"><path d="m256 354h225.88v30h-225.88z"/><path d="m466.88 150.5h-210.88v-30h210.88c8.33 0 15.12-6.79 15.12-15.12h30c0 24.88-20.24 45.12-45.12 45.12z"/><path d="m256 482h256v30h-256z"/></g></g></svg>