<svg id="Capa_1" enable-background="new 0 0 512 512" height="512" viewBox="0 0 512 512" width="512" xmlns="http://www.w3.org/2000/svg"><g><path d="m241 298.31h30v107.38h-30z" fill="#443c67"/><path d="m256 298.31h15v107.38h-15z" fill="#3d294f"/><path d="m288.18 32v32h-64.36v-32c0-17.67 14.33-32 32-32h.36c17.67 0 32 14.33 32 32z" fill="#fe534e"/><path d="m175.55 256h160.9v64h-160.9z" fill="#fe534e"/><path d="m288.18 64h-32.18v-64h.18c17.67 0 32 14.33 32 32z" fill="#e50057"/><path d="m256 256h80.45v64h-80.45z" fill="#e50057"/><path d="m89.52 54.62v210.76h332.96v-210.76z" fill="#66518e"/><path d="m256 54.62h166.48v210.76h-166.48z" fill="#443c67"/><path d="m352.54 128v64l39.94 9.23v34.15h-272.96v-150.76h272.96v34.15z" fill="#53c7ff"/><path d="m352.54 128v64l39.94 9.23v34.15h-136.48v-150.76h136.48v34.15z" fill="#48a4ff"/><path d="m150.114 129.875h30v60.25h-30z" fill="#48a4ff"/><path d="m223.82 384h64.36v128h-64.36z" fill="#fe534e"/><path d="m256 384h32.18v128h-32.18z" fill="#e50057"/></g></svg>