<svg id="Capa_1" enable-background="new 0 0 512 512" height="512" viewBox="0 0 512 512" width="512" xmlns="http://www.w3.org/2000/svg"><g><g><path d="m512 106.67v320c-73.06 11.82-145.87 4.29-218.67-3.23-72.81-7.53-145.61-15.05-218.66-3.23 0-52.26-32-156.77-32-156.77s32-108.82 32-163.23c73.05-11.82 145.85-4.3 218.66 3.23 72.8 7.52 145.61 15.05 218.67 3.23z" fill="#fff4f4"/></g><path d="m512 106.67v320c-73.06 11.82-145.87 4.29-218.67-3.23v-320c72.8 7.52 145.61 15.05 218.67 3.23z" fill="#eee6f2"/><circle cx="293.33" cy="263.44" fill="#fe534e" r="77"/><path d="m370.33 263.44c0 42.52-34.47 77-77 77v-154c42.53 0 77 34.47 77 77z" fill="#e50057"/><path d="m10.67 64h64v448h-64z" fill="#443c67"/><path d="m42.67 64h32v448h-32z" fill="#3d294f"/><path d="m85.33 42.67c0 23.56-19.1 42.66-42.66 42.66-23.57 0-42.67-19.1-42.67-42.66 0-23.57 19.1-42.67 42.67-42.67 23.56 0 42.66 19.1 42.66 42.67z" fill="#66518e"/><path d="m85.33 42.67c0 23.56-19.1 42.66-42.66 42.66v-85.33c23.56 0 42.66 19.1 42.66 42.67z" fill="#443c67"/></g></svg>