<svg id="Capa_1" enable-background="new 0 0 512.001 512.001" height="512" viewBox="0 0 512.001 512.001" width="512" xmlns="http://www.w3.org/2000/svg"><g><path d="m-7.954 382.11h210.85v64.84h-210.85z" fill="#443c67" transform="matrix(.707 -.707 .707 .707 -264.568 190.336)"/><path d="m3.508 409.782h210.85v32.42h-210.85z" fill="#3d294f" transform="matrix(.707 -.707 .707 .707 -269.316 201.798)"/><path d="m455.03 332.049c-75.957 75.957-199.114 75.95-275.072-.007s-75.964-199.114-.007-275.072c75.965-75.965 199.121-75.957 275.079 0s75.965 199.115 0 275.079z" fill="#ffd0e5"/><path d="m455.03 332.049c-75.957 75.957-199.114 75.95-275.072-.007l275.072-275.071c75.958 75.957 75.965 199.114 0 275.078z" fill="#f7abcd"/><path d="m267.124 382.41-68.759 22.924-91.698-91.698 22.924-68.759z" fill="#53c7ff"/><path d="m267.124 382.41-68.759 22.924-45.849-45.849 45.842-45.842z" fill="#48a4ff"/><path d="m336.049 243.041c-.417.219-.46.233-.87.445.431 6.894 2.546 40.56 2.546 40.56.728 11.66-3.733 22.217-11.229 29.713-8.358 8.358-20.485 12.891-33.361 10.847-24.416-3.868-38.969-29.366-29.861-52.361l14.955-37.781-.693-.693-37.781 14.955c-15.04 5.961-31.155 1.796-41.585-8.634-5.515-5.515-9.44-12.777-10.776-21.227-3.875-24.424 15.889-46.139 40.56-44.59 0 0 33.665 2.114 40.56 2.546.212-.41.226-.453.445-.87l-25.901-31.304c-13.081-15.811-11.201-38.311 2.411-51.923 2.786-2.786 6.067-5.204 9.815-7.114 22.033-11.229 48.79.863 54.942 24.805l10.112 39.358c.46.078.502.078.962.156l21.779-34.309c1.57-2.475 3.373-4.702 5.346-6.675 14.665-14.665 39.153-15.351 54.567.064 17.487 17.487 14.262 46.662-6.611 59.913l-34.309 21.779c.078.46.078.502.156.962l39.358 10.112c7 1.796 12.982 5.36 17.671 10.048 11.349 11.349 15.076 29.303 7.135 44.894-11.229 22.033-39.98 27.987-59.036 12.226z" fill="#fe534e"/><path d="m336.049 243.041c-.417.219-.46.233-.87.445.431 6.894 2.546 40.56 2.546 40.56.728 11.66-3.733 22.217-11.229 29.713-8.358 8.358-20.485 12.891-33.361 10.847-24.416-3.868-38.969-29.366-29.861-52.361l14.955-37.781-.346-.346 125.108-125.108c17.487 17.487 14.262 46.662-6.611 59.913l-34.309 21.779c.078.46.078.502.156.962l39.358 10.112c7 1.796 12.982 5.36 17.671 10.048 11.349 11.349 15.076 29.303 7.135 44.894-11.229 22.033-39.98 27.987-59.036 12.226z" fill="#e50057"/><path d="m298.04 183.96h30v30h-30z" fill="#ffd0e5" transform="matrix(.707 -.707 .707 .707 -48.999 279.627)"/><path d="m303.343 196.763h30v15h-30z" fill="#f7abcd" transform="matrix(.707 -.707 .707 .707 -51.195 284.93)"/></g></svg>